<?xml version="1.0" encoding="UTF-8" standalone="no"?>
<!DOCTYPE svg PUBLIC "-//W3C//DTD SVG 1.1//EN"
 "http://www.w3.org/Graphics/SVG/1.1/DTD/svg11.dtd">
<!-- Generated by graphviz version 12.1.1 (20240910.0053)
 -->
<!-- Title: imports Pages: 1 -->
<svg width="1108pt" height="985pt"
 viewBox="0.00 0.00 1107.63 985.00" xmlns="http://www.w3.org/2000/svg" xmlns:xlink="http://www.w3.org/1999/xlink">
<g id="graph0" class="graph" transform="scale(1 1) rotate(0) translate(4 981)">
<title>imports</title>
<polygon fill="white" stroke="none" points="-4,4 -4,-981 1103.63,-981 1103.63,4 -4,4"/>
<g id="clust1" class="cluster">
<title>cluster___</title>
<polygon fill="none" stroke="blue" points="8,-8 8,-969 1091.63,-969 1091.63,-8 8,-8"/>
<text text-anchor="middle" x="549.82" y="-19.2" font-family="Times,serif" font-size="24.00">..</text>
</g>
<g id="clust2" class="cluster">
<title>cluster_ui</title>
<polygon fill="none" stroke="blue" points="16,-53 16,-687 1083.63,-687 1083.63,-53 16,-53"/>
<text text-anchor="middle" x="549.82" y="-64.2" font-family="Times,serif" font-size="24.00">ui</text>
</g>
<g id="clust3" class="cluster">
<title>cluster_components</title>
<polygon fill="none" stroke="blue" points="776.79,-283 776.79,-679 908.77,-679 908.77,-283 776.79,-283"/>
<text text-anchor="middle" x="842.78" y="-294.2" font-family="Times,serif" font-size="24.00">components</text>
</g>
<g id="clust4" class="cluster">
<title>cluster_services</title>
<polygon fill="none" stroke="blue" points="24,-98 24,-571 643.93,-571 643.93,-98 24,-98"/>
<text text-anchor="middle" x="333.96" y="-109.2" font-family="Times,serif" font-size="24.00">services</text>
</g>
<g id="clust5" class="cluster">
<title>cluster_code_to_svg</title>
<polygon fill="none" stroke="blue" points="32,-143 32,-563 635.93,-563 635.93,-143 32,-143"/>
<text text-anchor="middle" x="333.96" y="-154.2" font-family="Times,serif" font-size="24.00">code&#45;to&#45;svg</text>
</g>
<g id="clust6" class="cluster">
<title>cluster_ui_dist</title>
<polygon fill="none" stroke="blue" points="57.33,-695 57.33,-784 139.55,-784 139.55,-695 57.33,-695"/>
<text text-anchor="middle" x="98.44" y="-706.2" font-family="Times,serif" font-size="24.00">ui&#45;dist</text>
</g>
<g id="clust7" class="cluster">
<title>cluster_test</title>
<polygon fill="none" stroke="blue" points="20.29,-792 20.29,-961 177.58,-961 177.58,-792 20.29,-792"/>
<text text-anchor="middle" x="98.94" y="-803.2" font-family="Times,serif" font-size="24.00">test</text>
</g>
<g id="clust8" class="cluster">
<title>cluster_data_samples</title>
<polygon fill="none" stroke="blue" points="28.29,-837 28.29,-953 169.58,-953 169.58,-837 28.29,-837"/>
<text text-anchor="middle" x="98.94" y="-848.2" font-family="Times,serif" font-size="24.00">data&#45;samples</text>
</g>
<g id="clust9" class="cluster">
<title>cluster_api</title>
<polygon fill="none" stroke="blue" points="318.97,-736 318.97,-852 403.84,-852 403.84,-736 318.97,-736"/>
<text text-anchor="middle" x="361.41" y="-747.2" font-family="Times,serif" font-size="24.00">api</text>
</g>
<!-- ../ui/state&#45;management.ts -->
<g id="node1" class="node">
<title>../ui/state&#45;management.ts</title>
<g id="a_node1"><a xlink:href="../ui/state-management.ts" xlink:title="../ui/state&#45;management.ts">
<polygon fill="none" stroke="blue" points="670.13,-678.5 523.06,-678.5 523.06,-579.5 670.13,-579.5 670.13,-678.5"/>
<text text-anchor="middle" x="596.6" y="-624.2" font-family="Times,serif" font-size="16.00">state&#45;management.ts</text>
</a>
</g>
</g>
<!-- ../ui/components/top&#45;menu.ts -->
<g id="node4" class="node">
<title>../ui/components/top&#45;menu.ts</title>
<g id="a_node4"><a xlink:href="../ui/components/top-menu.ts" xlink:title="../ui/components/top&#45;menu.ts">
<polygon fill="none" stroke="blue" points="888.28,-671 796.29,-671 796.29,-599 888.28,-599 888.28,-671"/>
<text text-anchor="middle" x="842.28" y="-630.2" font-family="Times,serif" font-size="16.00">top&#45;menu.ts</text>
</a>
</g>
</g>
<!-- ../ui/state&#45;management.ts&#45;&gt;../ui/components/top&#45;menu.ts -->
<g id="edge3" class="edge">
<title>../ui/state&#45;management.ts&#45;&gt;../ui/components/top&#45;menu.ts</title>
<path fill="none" stroke="blue" d="M670.38,-630.79C707.05,-631.69 750.83,-632.77 784.9,-633.61"/>
<polygon fill="blue" stroke="blue" points="784.46,-637.1 794.54,-633.85 784.63,-630.1 784.46,-637.1"/>
<text text-anchor="middle" x="719.46" y="-650.71" font-family="Times,serif" font-size="12.00">hideEditor</text>
<text text-anchor="middle" x="719.46" y="-636.31" font-family="Times,serif" font-size="12.00">setCode</text>
</g>
<!-- ../ui/components/draw&#45;graph.ts -->
<g id="node5" class="node">
<title>../ui/components/draw&#45;graph.ts</title>
<g id="a_node5"><a xlink:href="../ui/components/draw-graph.ts" xlink:title="../ui/components/draw&#45;graph.ts">
<polygon fill="none" stroke="blue" points="894.49,-418 790.08,-418 790.08,-328 894.49,-328 894.49,-418"/>
<text text-anchor="middle" x="842.28" y="-368.2" font-family="Times,serif" font-size="16.00">draw&#45;graph.ts</text>
</a>
</g>
</g>
<!-- ../ui/state&#45;management.ts&#45;&gt;../ui/components/draw&#45;graph.ts -->
<g id="edge5" class="edge">
<title>../ui/state&#45;management.ts&#45;&gt;../ui/components/draw&#45;graph.ts</title>
<path fill="none" stroke="blue" d="M661.12,-579.15C664.41,-575.25 667.45,-571.19 670.13,-567 686.12,-541.95 672.08,-527.61 688.13,-502.6 711.67,-465.91 748.8,-434.12 780.6,-411.21"/>
<polygon fill="blue" stroke="blue" points="782.45,-414.19 788.61,-405.56 778.42,-408.47 782.45,-414.19"/>
<text text-anchor="middle" x="719.46" y="-506.2" font-family="Times,serif" font-size="12.00">getCode</text>
</g>
<!-- ../ui/components/read&#45;file.ts -->
<g id="node2" class="node">
<title>../ui/components/read&#45;file.ts</title>
<g id="a_node2"><a xlink:href="../ui/components/read-file.ts" xlink:title="../ui/components/read&#45;file.ts">
<polygon fill="none" stroke="blue" points="884.71,-499.5 799.86,-499.5 799.86,-436.5 884.71,-436.5 884.71,-499.5"/>
<text text-anchor="middle" x="842.28" y="-463.2" font-family="Times,serif" font-size="16.00">read&#45;file.ts</text>
</a>
</g>
</g>
<!-- ../ui/components/read&#45;file.ts&#45;&gt;../ui/state&#45;management.ts -->
<g id="edge1" class="edge">
<title>../ui/components/read&#45;file.ts&#45;&gt;../ui/state&#45;management.ts</title>
<path fill="none" stroke="blue" d="M799.61,-491.63C768.39,-509.71 724.91,-535.68 688.13,-560.6 682.45,-564.44 676.65,-568.5 670.86,-572.65"/>
<polygon fill="blue" stroke="blue" points="669.06,-569.64 663.01,-578.34 673.16,-575.31 669.06,-569.64"/>
<text text-anchor="middle" x="719.46" y="-564.2" font-family="Times,serif" font-size="12.00">ReadFile</text>
</g>
<!-- ../ui/components/code&#45;editor.ts -->
<g id="node3" class="node">
<title>../ui/components/code&#45;editor.ts</title>
<g id="a_node3"><a xlink:href="../ui/components/code-editor.ts" xlink:title="../ui/components/code&#45;editor.ts">
<polygon fill="none" stroke="blue" points="894.04,-580.5 790.52,-580.5 790.52,-517.5 894.04,-517.5 894.04,-580.5"/>
<text text-anchor="middle" x="842.28" y="-544.2" font-family="Times,serif" font-size="16.00">code&#45;editor.ts</text>
</a>
</g>
</g>
<!-- ../ui/components/code&#45;editor.ts&#45;&gt;../ui/state&#45;management.ts -->
<g id="edge2" class="edge">
<title>../ui/components/code&#45;editor.ts&#45;&gt;../ui/state&#45;management.ts</title>
<path fill="none" stroke="blue" d="M790.12,-565.8C758.51,-576.17 717.2,-589.74 680.95,-601.64"/>
<polygon fill="blue" stroke="blue" points="680.23,-598.19 671.82,-604.63 682.41,-604.84 680.23,-598.19"/>
<text text-anchor="middle" x="719.46" y="-602.12" font-family="Times,serif" font-size="12.00">CodeEditor</text>
</g>
<!-- ../ui/index.ts -->
<g id="node6" class="node">
<title>../ui/index.ts</title>
<g id="a_node6"><a xlink:href="../ui/index.ts" xlink:title="../ui/index.ts">
<polygon fill="none" stroke="blue" points="1075.63,-492 1009.42,-492 1009.42,-402 1075.63,-402 1075.63,-492"/>
<text text-anchor="middle" x="1042.53" y="-442.2" font-family="Times,serif" font-size="16.00">index.ts</text>
</a>
</g>
</g>
<!-- ../ui/components/top&#45;menu.ts&#45;&gt;../ui/index.ts -->
<g id="edge6" class="edge">
<title>../ui/components/top&#45;menu.ts&#45;&gt;../ui/index.ts</title>
<path fill="none" stroke="blue" d="M888.65,-605.77C895.58,-600.76 902.51,-595.41 908.77,-590 942.49,-560.88 976.6,-523.94 1001.8,-494.9"/>
<polygon fill="blue" stroke="blue" points="1004.14,-497.55 1008.01,-487.69 998.83,-492.99 1004.14,-497.55"/>
<text text-anchor="middle" x="963.09" y="-568.37" font-family="Times,serif" font-size="12.00">TopMenu</text>
</g>
<!-- ../ui/components/draw&#45;graph.ts&#45;&gt;../ui/index.ts -->
<g id="edge7" class="edge">
<title>../ui/components/draw&#45;graph.ts&#45;&gt;../ui/index.ts</title>
<path fill="none" stroke="blue" d="M894.85,-392.25C927.04,-404.26 967.99,-419.55 998.44,-430.92"/>
<polygon fill="blue" stroke="blue" points="997.13,-434.16 1007.72,-434.38 999.58,-427.61 997.13,-434.16"/>
<text text-anchor="middle" x="963.09" y="-430.75" font-family="Times,serif" font-size="12.00">DrawGraph</text>
</g>
<!-- ../ui/services/code&#45;to&#45;svg/json&#45;to&#45;graph.ts -->
<g id="node7" class="node">
<title>../ui/services/code&#45;to&#45;svg/json&#45;to&#45;graph.ts</title>
<g id="a_node7"><a xlink:href="../ui/services/code-to-svg/json-to-graph.ts" xlink:title="../ui/services/code&#45;to&#45;svg/json&#45;to&#45;graph.ts">
<polygon fill="none" stroke="blue" points="156.88,-532.5 40,-532.5 40,-469.5 156.88,-469.5 156.88,-532.5"/>
<text text-anchor="middle" x="98.44" y="-496.2" font-family="Times,serif" font-size="16.00">json&#45;to&#45;graph.ts</text>
</a>
</g>
</g>
<!-- ../ui/services/code&#45;to&#45;svg/graph&#45;viz.ts -->
<g id="node11" class="node">
<title>../ui/services/code&#45;to&#45;svg/graph&#45;viz.ts</title>
<g id="a_node11"><a xlink:href="../ui/services/code-to-svg/graph-viz.ts" xlink:title="../ui/services/code&#45;to&#45;svg/graph&#45;viz.ts">
<polygon fill="none" stroke="blue" points="407.4,-555 315.42,-555 315.42,-447 407.4,-447 407.4,-555"/>
<text text-anchor="middle" x="361.41" y="-496.2" font-family="Times,serif" font-size="16.00">graph&#45;viz.ts</text>
</a>
</g>
</g>
<!-- ../ui/services/code&#45;to&#45;svg/json&#45;to&#45;graph.ts&#45;&gt;../ui/services/code&#45;to&#45;svg/graph&#45;viz.ts -->
<g id="edge13" class="edge">
<title>../ui/services/code&#45;to&#45;svg/json&#45;to&#45;graph.ts&#45;&gt;../ui/services/code&#45;to&#45;svg/graph&#45;viz.ts</title>
<path fill="none" stroke="blue" d="M157.36,-501C200.96,-501 260.42,-501 303.72,-501"/>
<polygon fill="blue" stroke="blue" points="303.68,-504.5 313.68,-501 303.68,-497.5 303.68,-504.5"/>
<text text-anchor="middle" x="245.44" y="-504.6" font-family="Times,serif" font-size="12.00">JsonToGraph</text>
</g>
<!-- ../ui/services/code&#45;to&#45;svg/main.ts -->
<g id="node8" class="node">
<title>../ui/services/code&#45;to&#45;svg/main.ts</title>
<g id="a_node8"><a xlink:href="../ui/services/code-to-svg/main.ts" xlink:title="../ui/services/code&#45;to&#45;svg/main.ts">
<polygon fill="none" stroke="blue" points="627.93,-447.5 565.26,-447.5 565.26,-312.5 627.93,-312.5 627.93,-447.5"/>
<text text-anchor="middle" x="596.6" y="-375.2" font-family="Times,serif" font-size="16.00">main.ts</text>
</a>
</g>
</g>
<!-- ../ui/services/code&#45;to&#45;svg/main.ts&#45;&gt;../ui/components/draw&#45;graph.ts -->
<g id="edge4" class="edge">
<title>../ui/services/code&#45;to&#45;svg/main.ts&#45;&gt;../ui/components/draw&#45;graph.ts</title>
<path fill="none" stroke="blue" d="M628.14,-376.46C645.66,-374.6 668.1,-372.53 688.13,-371.6 717.89,-370.22 750.95,-370.32 778.71,-370.86"/>
<polygon fill="blue" stroke="blue" points="778.27,-374.35 788.34,-371.08 778.42,-367.36 778.27,-374.35"/>
<text text-anchor="middle" x="719.46" y="-375.2" font-family="Times,serif" font-size="12.00">CodeToSVG</text>
</g>
<!-- ../ui/services/code&#45;to&#45;svg/dot&#45;sugar.ts -->
<g id="node9" class="node">
<title>../ui/services/code&#45;to&#45;svg/dot&#45;sugar.ts</title>
<g id="a_node9"><a xlink:href="../ui/services/code-to-svg/dot-sugar.ts" xlink:title="../ui/services/code&#45;to&#45;svg/dot&#45;sugar.ts">
<polygon fill="none" stroke="blue" points="406.96,-350 315.86,-350 315.86,-278 406.96,-278 406.96,-350"/>
<text text-anchor="middle" x="361.41" y="-309.2" font-family="Times,serif" font-size="16.00">dot&#45;sugar.ts</text>
</a>
</g>
</g>
<!-- ../ui/services/code&#45;to&#45;svg/dot&#45;sugar.ts&#45;&gt;../ui/services/code&#45;to&#45;svg/main.ts -->
<g id="edge9" class="edge">
<title>../ui/services/code&#45;to&#45;svg/dot&#45;sugar.ts&#45;&gt;../ui/services/code&#45;to&#45;svg/main.ts</title>
<path fill="none" stroke="blue" d="M407.37,-326.73C449.71,-338.71 512.63,-356.52 553.88,-368.19"/>
<polygon fill="blue" stroke="blue" points="552.87,-371.54 563.44,-370.9 554.78,-364.81 552.87,-371.54"/>
<text text-anchor="middle" x="468.73" y="-356.51" font-family="Times,serif" font-size="12.00">DotSugar</text>
</g>
<!-- ../ui/services/code&#45;to&#45;svg/interface.ts -->
<g id="node10" class="node">
<title>../ui/services/code&#45;to&#45;svg/interface.ts</title>
<g id="a_node10"><a xlink:href="../ui/services/code-to-svg/interface.ts" xlink:title="../ui/services/code&#45;to&#45;svg/interface.ts">
<polygon fill="none" stroke="blue" points="141.75,-441 55.12,-441 55.12,-243 141.75,-243 141.75,-441"/>
<text text-anchor="middle" x="98.44" y="-337.2" font-family="Times,serif" font-size="16.00">interface.ts</text>
</a>
</g>
</g>
<!-- ../ui/services/code&#45;to&#45;svg/interface.ts&#45;&gt;../ui/services/code&#45;to&#45;svg/main.ts -->
<g id="edge10" class="edge">
<title>../ui/services/code&#45;to&#45;svg/interface.ts&#45;&gt;../ui/services/code&#45;to&#45;svg/main.ts</title>
<path fill="none" stroke="blue" d="M141.95,-352.43C159.9,-356.42 181.09,-360.59 200.47,-363 328.42,-378.94 481.28,-380.64 553.65,-380.42"/>
<polygon fill="blue" stroke="blue" points="553.47,-383.92 563.45,-380.37 553.44,-376.92 553.47,-383.92"/>
<text text-anchor="middle" x="361.41" y="-410.58" font-family="Times,serif" font-size="12.00">Code</text>
<text text-anchor="middle" x="361.41" y="-396.18" font-family="Times,serif" font-size="12.00">CodeToSvgConvertor</text>
<text text-anchor="middle" x="361.41" y="-381.78" font-family="Times,serif" font-size="12.00">Svg</text>
</g>
<!-- ../ui/services/code&#45;to&#45;svg/interface.ts&#45;&gt;../ui/services/code&#45;to&#45;svg/dot&#45;sugar.ts -->
<g id="edge11" class="edge">
<title>../ui/services/code&#45;to&#45;svg/interface.ts&#45;&gt;../ui/services/code&#45;to&#45;svg/dot&#45;sugar.ts</title>
<path fill="none" stroke="blue" d="M142.24,-337.41C186.42,-332.67 255.55,-325.25 304.13,-320.04"/>
<polygon fill="blue" stroke="blue" points="304.32,-323.54 313.89,-318.99 303.57,-316.58 304.32,-323.54"/>
<text text-anchor="middle" x="245.44" y="-348.51" font-family="Times,serif" font-size="12.00">Dot</text>
<text text-anchor="middle" x="245.44" y="-334.11" font-family="Times,serif" font-size="12.00">Sugar</text>
</g>
<!-- ../ui/services/code&#45;to&#45;svg/interface.ts&#45;&gt;../ui/services/code&#45;to&#45;svg/graph&#45;viz.ts -->
<g id="edge12" class="edge">
<title>../ui/services/code&#45;to&#45;svg/interface.ts&#45;&gt;../ui/services/code&#45;to&#45;svg/graph&#45;viz.ts</title>
<path fill="none" stroke="blue" d="M142,-365.88C181.01,-388.02 240.17,-422.2 290.41,-453.8 295.45,-456.97 300.66,-460.32 305.84,-463.72"/>
<polygon fill="blue" stroke="blue" points="303.59,-466.43 313.86,-469.02 307.45,-460.59 303.59,-466.43"/>
<text text-anchor="middle" x="245.44" y="-486.2" font-family="Times,serif" font-size="12.00">Dot</text>
<text text-anchor="middle" x="245.44" y="-471.8" font-family="Times,serif" font-size="12.00">GraphVizInterface</text>
<text text-anchor="middle" x="245.44" y="-457.4" font-family="Times,serif" font-size="12.00">Svg</text>
</g>
<!-- ../ui/services/code&#45;to&#45;svg/json&#45;sugar.ts -->
<g id="node12" class="node">
<title>../ui/services/code&#45;to&#45;svg/json&#45;sugar.ts</title>
<g id="a_node12"><a xlink:href="../ui/services/code-to-svg/json-sugar.ts" xlink:title="../ui/services/code&#45;to&#45;svg/json&#45;sugar.ts">
<polygon fill="none" stroke="blue" points="410.07,-260 312.74,-260 312.74,-188 410.07,-188 410.07,-260"/>
<text text-anchor="middle" x="361.41" y="-219.2" font-family="Times,serif" font-size="16.00">json&#45;sugar.ts</text>
</a>
</g>
</g>
<!-- ../ui/services/code&#45;to&#45;svg/interface.ts&#45;&gt;../ui/services/code&#45;to&#45;svg/json&#45;sugar.ts -->
<g id="edge14" class="edge">
<title>../ui/services/code&#45;to&#45;svg/interface.ts&#45;&gt;../ui/services/code&#45;to&#45;svg/json&#45;sugar.ts</title>
<path fill="none" stroke="blue" d="M141.76,-318.74C159.68,-309.2 180.9,-298.28 200.47,-289.2 233.56,-273.85 271.32,-258.36 301.84,-246.34"/>
<polygon fill="blue" stroke="blue" points="302.87,-249.7 310.9,-242.79 300.31,-243.18 302.87,-249.7"/>
<text text-anchor="middle" x="245.44" y="-307.2" font-family="Times,serif" font-size="12.00">Json</text>
<text text-anchor="middle" x="245.44" y="-292.8" font-family="Times,serif" font-size="12.00">Sugar</text>
</g>
<!-- ../ui/services/code&#45;to&#45;svg/graph&#45;viz.ts&#45;&gt;../ui/services/code&#45;to&#45;svg/main.ts -->
<g id="edge8" class="edge">
<title>../ui/services/code&#45;to&#45;svg/graph&#45;viz.ts&#45;&gt;../ui/services/code&#45;to&#45;svg/main.ts</title>
<path fill="none" stroke="blue" d="M407.78,-466.19C415.79,-460.67 424.2,-455.26 432.4,-450.6 472.25,-427.98 520.76,-407.86 554.48,-394.94"/>
<polygon fill="blue" stroke="blue" points="555.35,-398.35 563.47,-391.54 552.87,-391.81 555.35,-398.35"/>
<text text-anchor="middle" x="468.73" y="-454.2" font-family="Times,serif" font-size="12.00">GraphViz</text>
</g>
<!-- ../ui&#45;dist/index.js -->
<g id="node13" class="node">
<title>../ui&#45;dist/index.js</title>
<g id="a_node13"><a xlink:href="../ui-dist/index.js" xlink:title="../ui&#45;dist/index.js">
<polygon fill="none" stroke="blue" points="131.55,-776 65.33,-776 65.33,-740 131.55,-740 131.55,-776"/>
<text text-anchor="middle" x="98.44" y="-753.2" font-family="Times,serif" font-size="16.00">index.js</text>
</a>
</g>
</g>
<!-- ../test/data&#45;samples/examples.ts -->
<g id="node14" class="node">
<title>../test/data&#45;samples/examples.ts</title>
<g id="a_node14"><a xlink:href="../test/data-samples/examples.ts" xlink:title="../test/data&#45;samples/examples.ts">
<polygon fill="none" stroke="blue" points="143.98,-944.5 52.89,-944.5 52.89,-881.5 143.98,-881.5 143.98,-944.5"/>
<text text-anchor="middle" x="98.44" y="-908.2" font-family="Times,serif" font-size="16.00">examples.ts</text>
</a>
</g>
</g>
<!-- ../api/router.ts -->
<g id="node15" class="node">
<title>../api/router.ts</title>
<g id="a_node15"><a xlink:href="../api/router.ts" xlink:title="../api/router.ts">
<polygon fill="none" stroke="blue" points="395.84,-843.5 326.97,-843.5 326.97,-780.5 395.84,-780.5 395.84,-843.5"/>
<text text-anchor="middle" x="361.41" y="-807.2" font-family="Times,serif" font-size="16.00">router.ts</text>
</a>
</g>
</g>
<!-- ../test/data&#45;samples/examples.ts&#45;&gt;../api/router.ts -->
<g id="edge15" class="edge">
<title>../test/data&#45;samples/examples.ts&#45;&gt;../api/router.ts</title>
<path fill="none" stroke="blue" d="M144.3,-895.64C192.3,-877.06 267.96,-847.78 315.85,-829.25"/>
<polygon fill="blue" stroke="blue" points="317.03,-832.54 325.09,-825.67 314.5,-826.01 317.03,-832.54"/>
<text text-anchor="middle" x="245.44" y="-875.15" font-family="Times,serif" font-size="12.00">* as examples</text>
</g>
<!-- ../server.ts -->
<g id="node17" class="node">
<title>../server.ts</title>
<g id="a_node17"><a xlink:href="../server.ts" xlink:title="../server.ts">
<polygon fill="none" stroke="blue" points="631.47,-918 561.72,-918 561.72,-792 631.47,-792 631.47,-918"/>
<text text-anchor="middle" x="596.6" y="-850.2" font-family="Times,serif" font-size="16.00">server.ts</text>
</a>
</g>
</g>
<!-- ../api/router.ts&#45;&gt;../server.ts -->
<g id="edge16" class="edge">
<title>../api/router.ts&#45;&gt;../server.ts</title>
<path fill="none" stroke="blue" d="M396.31,-818.25C436.87,-825.73 504.92,-838.28 550.04,-846.6"/>
<polygon fill="blue" stroke="blue" points="549.31,-850.02 559.78,-848.4 550.58,-843.14 549.31,-850.02"/>
<text text-anchor="middle" x="468.73" y="-840.95" font-family="Times,serif" font-size="12.00">router</text>
</g>
<!-- ../config.ts -->
<g id="node16" class="node">
<title>../config.ts</title>
<g id="a_node16"><a xlink:href="../config.ts" xlink:title="../config.ts">
<polygon fill="none" stroke="blue" points="397.18,-960.5 325.63,-960.5 325.63,-861.5 397.18,-861.5 397.18,-960.5"/>
<text text-anchor="middle" x="361.41" y="-906.2" font-family="Times,serif" font-size="16.00">config.ts</text>
</a>
</g>
</g>
<!-- ../config.ts&#45;&gt;../server.ts -->
<g id="edge17" class="edge">
<title>../config.ts&#45;&gt;../server.ts</title>
<path fill="none" stroke="blue" d="M397.57,-902.56C438.3,-892.77 505.52,-876.63 550.17,-865.91"/>
<polygon fill="blue" stroke="blue" points="550.91,-869.33 559.82,-863.59 549.28,-862.52 550.91,-869.33"/>
<text text-anchor="middle" x="468.73" y="-939.69" font-family="Times,serif" font-size="12.00">importMapFile</text>
<text text-anchor="middle" x="468.73" y="-925.29" font-family="Times,serif" font-size="12.00">uiEntrypoints</text>
<text text-anchor="middle" x="468.73" y="-910.89" font-family="Times,serif" font-size="12.00">uiOutDir</text>
<text text-anchor="middle" x="468.73" y="-896.49" font-family="Times,serif" font-size="12.00">uiSourceDir</text>
</g>
</g>
</svg>

