<?xml version="1.0" encoding="UTF-8" standalone="no"?>
<!DOCTYPE svg PUBLIC "-//W3C//DTD SVG 1.1//EN"
 "http://www.w3.org/Graphics/SVG/1.1/DTD/svg11.dtd">
<!-- Generated by graphviz version 12.1.1 (20240910.0053)
 -->
<!-- Title: imports Pages: 1 -->
<svg width="1042pt" height="895pt"
 viewBox="0.00 0.00 1041.64 895.00" xmlns="http://www.w3.org/2000/svg" xmlns:xlink="http://www.w3.org/1999/xlink">
<g id="graph0" class="graph" transform="scale(1 1) rotate(0) translate(4 891)">
<title>imports</title>
<polygon fill="white" stroke="none" points="-4,4 -4,-891 1037.64,-891 1037.64,4 -4,4"/>
<g id="clust1" class="cluster">
<title>cluster___</title>
<polygon fill="none" stroke="blue" points="8,-8 8,-879 1025.64,-879 1025.64,-8 8,-8"/>
<text text-anchor="middle" x="516.82" y="-19.2" font-family="Times,serif" font-size="24.00">..</text>
</g>
<g id="clust2" class="cluster">
<title>cluster_ui</title>
<polygon fill="none" stroke="blue" points="16,-53 16,-597 1017.64,-597 1017.64,-53 16,-53"/>
<text text-anchor="middle" x="516.82" y="-64.2" font-family="Times,serif" font-size="24.00">ui</text>
</g>
<g id="clust3" class="cluster">
<title>cluster_components</title>
<polygon fill="none" stroke="blue" points="704.14,-98 704.14,-502 836.12,-502 836.12,-98 704.14,-98"/>
<text text-anchor="middle" x="770.13" y="-109.2" font-family="Times,serif" font-size="24.00">components</text>
</g>
<g id="clust4" class="cluster">
<title>cluster_services</title>
<polygon fill="none" stroke="blue" points="38.22,-98 38.22,-545 607.48,-545 607.48,-98 38.22,-98"/>
<text text-anchor="middle" x="322.85" y="-109.2" font-family="Times,serif" font-size="24.00">services</text>
</g>
<g id="clust5" class="cluster">
<title>cluster_code_to_svg</title>
<polygon fill="none" stroke="blue" points="46.22,-143 46.22,-537 599.48,-537 599.48,-143 46.22,-143"/>
<text text-anchor="middle" x="322.85" y="-154.2" font-family="Times,serif" font-size="24.00">code&#45;to&#45;svg</text>
</g>
<g id="clust6" class="cluster">
<title>cluster_ui_dist</title>
<polygon fill="none" stroke="blue" points="56.42,-605 56.42,-694 138.64,-694 138.64,-605 56.42,-605"/>
<text text-anchor="middle" x="97.53" y="-616.2" font-family="Times,serif" font-size="24.00">ui&#45;dist</text>
</g>
<g id="clust7" class="cluster">
<title>cluster_test</title>
<polygon fill="none" stroke="blue" points="19.39,-702 19.39,-871 176.67,-871 176.67,-702 19.39,-702"/>
<text text-anchor="middle" x="98.03" y="-713.2" font-family="Times,serif" font-size="24.00">test</text>
</g>
<g id="clust8" class="cluster">
<title>cluster_data_samples</title>
<polygon fill="none" stroke="blue" points="27.39,-747 27.39,-863 168.67,-863 168.67,-747 27.39,-747"/>
<text text-anchor="middle" x="98.03" y="-758.2" font-family="Times,serif" font-size="24.00">data&#45;samples</text>
</g>
<g id="clust9" class="cluster">
<title>cluster_api</title>
<polygon fill="none" stroke="blue" points="321.17,-646 321.17,-762 406.05,-762 406.05,-646 321.17,-646"/>
<text text-anchor="middle" x="363.61" y="-657.2" font-family="Times,serif" font-size="24.00">api</text>
</g>
<!-- ../ui/state&#45;management.ts -->
<g id="node1" class="node">
<title>../ui/state&#45;management.ts</title>
<g id="a_node1"><a xlink:href="../ui/state-management.ts" xlink:title="../ui/state&#45;management.ts">
<polygon fill="none" stroke="blue" points="171.06,-589 24,-589 24,-553 171.06,-553 171.06,-589"/>
<text text-anchor="middle" x="97.53" y="-566.2" font-family="Times,serif" font-size="16.00">state&#45;management.ts</text>
</a>
</g>
</g>
<!-- ../ui/components/read&#45;file.ts -->
<g id="node2" class="node">
<title>../ui/components/read&#45;file.ts</title>
<g id="a_node2"><a xlink:href="../ui/components/read-file.ts" xlink:title="../ui/components/read&#45;file.ts">
<polygon fill="none" stroke="blue" points="812.06,-205.5 727.21,-205.5 727.21,-142.5 812.06,-142.5 812.06,-205.5"/>
<text text-anchor="middle" x="769.63" y="-169.2" font-family="Times,serif" font-size="16.00">read&#45;file.ts</text>
</a>
</g>
</g>
<!-- ../ui/index.ts -->
<g id="node6" class="node">
<title>../ui/index.ts</title>
<g id="a_node6"><a xlink:href="../ui/index.ts" xlink:title="../ui/index.ts">
<polygon fill="none" stroke="blue" points="1009.64,-406 943.42,-406 943.42,-262 1009.64,-262 1009.64,-406"/>
<text text-anchor="middle" x="976.53" y="-329.2" font-family="Times,serif" font-size="16.00">index.ts</text>
</a>
</g>
</g>
<!-- ../ui/components/read&#45;file.ts&#45;&gt;../ui/index.ts -->
<g id="edge7" class="edge">
<title>../ui/components/read&#45;file.ts&#45;&gt;../ui/index.ts</title>
<path fill="none" stroke="blue" d="M812.32,-183.73C846.14,-193.41 893.3,-211.13 925.42,-240.6 929.37,-244.22 933.06,-248.22 936.52,-252.47"/>
<polygon fill="blue" stroke="blue" points="933.57,-254.38 942.36,-260.3 939.18,-250.19 933.57,-254.38"/>
<text text-anchor="middle" x="893.77" y="-244.2" font-family="Times,serif" font-size="12.00">ReadFile</text>
</g>
<!-- ../ui/components/code&#45;editor.ts -->
<g id="node3" class="node">
<title>../ui/components/code&#45;editor.ts</title>
<g id="a_node3"><a xlink:href="../ui/components/code-editor.ts" xlink:title="../ui/components/code&#45;editor.ts">
<polygon fill="none" stroke="blue" points="821.4,-286.5 717.87,-286.5 717.87,-223.5 821.4,-223.5 821.4,-286.5"/>
<text text-anchor="middle" x="769.63" y="-250.2" font-family="Times,serif" font-size="16.00">code&#45;editor.ts</text>
</a>
</g>
</g>
<!-- ../ui/components/code&#45;editor.ts&#45;&gt;../ui/index.ts -->
<g id="edge5" class="edge">
<title>../ui/components/code&#45;editor.ts&#45;&gt;../ui/index.ts</title>
<path fill="none" stroke="blue" d="M821.8,-254.27C853.35,-255.82 893.7,-261.54 925.42,-278.6 928.47,-280.24 931.42,-282.13 934.27,-284.22"/>
<polygon fill="blue" stroke="blue" points="931.88,-286.79 941.82,-290.46 936.34,-281.39 931.88,-286.79"/>
<text text-anchor="middle" x="893.77" y="-282.2" font-family="Times,serif" font-size="12.00">CodeEditor</text>
</g>
<!-- ../ui/components/top&#45;menu.ts -->
<g id="node4" class="node">
<title>../ui/components/top&#45;menu.ts</title>
<g id="a_node4"><a xlink:href="../ui/components/top-menu.ts" xlink:title="../ui/components/top&#45;menu.ts">
<polygon fill="none" stroke="blue" points="815.63,-385.5 723.64,-385.5 723.64,-304.5 815.63,-304.5 815.63,-385.5"/>
<text text-anchor="middle" x="769.63" y="-340.2" font-family="Times,serif" font-size="16.00">top&#45;menu.ts</text>
</a>
</g>
</g>
<!-- ../ui/components/top&#45;menu.ts&#45;&gt;../ui/index.ts -->
<g id="edge4" class="edge">
<title>../ui/components/top&#45;menu.ts&#45;&gt;../ui/index.ts</title>
<path fill="none" stroke="blue" d="M815.82,-347.56C846.76,-348.69 888.69,-348.98 925.42,-345 927.58,-344.77 929.78,-344.48 932,-344.14"/>
<polygon fill="blue" stroke="blue" points="932.36,-347.64 941.6,-342.45 931.14,-340.74 932.36,-347.64"/>
<text text-anchor="middle" x="893.77" y="-351.83" font-family="Times,serif" font-size="12.00">TopMenu</text>
</g>
<!-- ../ui/components/draw&#45;graph.ts -->
<g id="node5" class="node">
<title>../ui/components/draw&#45;graph.ts</title>
<g id="a_node5"><a xlink:href="../ui/components/draw-graph.ts" xlink:title="../ui/components/draw&#45;graph.ts">
<polygon fill="none" stroke="blue" points="821.84,-494 717.43,-494 717.43,-404 821.84,-404 821.84,-494"/>
<text text-anchor="middle" x="769.63" y="-444.2" font-family="Times,serif" font-size="16.00">draw&#45;graph.ts</text>
</a>
</g>
</g>
<!-- ../ui/components/draw&#45;graph.ts&#45;&gt;../ui/index.ts -->
<g id="edge6" class="edge">
<title>../ui/components/draw&#45;graph.ts&#45;&gt;../ui/index.ts</title>
<path fill="none" stroke="blue" d="M822.2,-423.24C852.63,-407.66 891.67,-386.99 925.42,-367 928.02,-365.46 930.68,-363.85 933.34,-362.19"/>
<polygon fill="blue" stroke="blue" points="935.08,-365.23 941.65,-356.92 931.33,-359.32 935.08,-365.23"/>
<text text-anchor="middle" x="893.77" y="-405.81" font-family="Times,serif" font-size="12.00">DrawGraph</text>
</g>
<!-- ../ui/index.ts&#45;&gt;../ui/components/top&#45;menu.ts -->
<g id="edge1" class="edge">
<title>../ui/index.ts&#45;&gt;../ui/components/top&#45;menu.ts</title>
<path fill="none" stroke="blue" d="M943.14,-309.51C937.49,-306.34 931.48,-303.58 925.42,-301.8 898.43,-293.87 889.58,-295.64 862.12,-301.8 850.05,-304.51 837.7,-308.99 826.13,-314.08"/>
<polygon fill="blue" stroke="blue" points="824.73,-310.87 817.13,-318.24 827.67,-317.22 824.73,-310.87"/>
<text text-anchor="middle" x="893.77" y="-334.2" font-family="Times,serif" font-size="12.00">codeEditor</text>
<text text-anchor="middle" x="893.77" y="-319.8" font-family="Times,serif" font-size="12.00">graphDrawer</text>
<text text-anchor="middle" x="893.77" y="-305.4" font-family="Times,serif" font-size="12.00">readFile</text>
</g>
<!-- ../ui/index.ts&#45;&gt;../ui/components/draw&#45;graph.ts -->
<g id="edge3" class="edge">
<title>../ui/index.ts&#45;&gt;../ui/components/draw&#45;graph.ts</title>
<path fill="none" stroke="blue" d="M944.43,-406.34C938.97,-413.47 932.66,-419.93 925.42,-425 898.95,-443.53 863.71,-450.03 833.54,-451.67"/>
<polygon fill="blue" stroke="blue" points="833.63,-448.17 823.76,-452.02 833.88,-455.16 833.63,-448.17"/>
<text text-anchor="middle" x="893.77" y="-452.12" font-family="Times,serif" font-size="12.00">codeEditor</text>
</g>
<!-- ../ui/services/code&#45;to&#45;svg/main.ts -->
<g id="node7" class="node">
<title>../ui/services/code&#45;to&#45;svg/main.ts</title>
<g id="a_node7"><a xlink:href="../ui/services/code-to-svg/main.ts" xlink:title="../ui/services/code&#45;to&#45;svg/main.ts">
<polygon fill="none" stroke="blue" points="591.48,-467.5 528.81,-467.5 528.81,-332.5 591.48,-332.5 591.48,-467.5"/>
<text text-anchor="middle" x="560.15" y="-395.2" font-family="Times,serif" font-size="16.00">main.ts</text>
</a>
</g>
</g>
<!-- ../ui/services/code&#45;to&#45;svg/main.ts&#45;&gt;../ui/components/draw&#45;graph.ts -->
<g id="edge2" class="edge">
<title>../ui/services/code&#45;to&#45;svg/main.ts&#45;&gt;../ui/components/draw&#45;graph.ts</title>
<path fill="none" stroke="blue" d="M591.76,-407.23C621.72,-414.31 668.23,-425.29 706.04,-434.22"/>
<polygon fill="blue" stroke="blue" points="704.95,-437.56 715.49,-436.45 706.56,-430.74 704.95,-437.56"/>
<text text-anchor="middle" x="646.81" y="-431.03" font-family="Times,serif" font-size="12.00">CodeToSVG</text>
</g>
<!-- ../ui/services/code&#45;to&#45;svg/dot&#45;sugar.ts -->
<g id="node8" class="node">
<title>../ui/services/code&#45;to&#45;svg/dot&#45;sugar.ts</title>
<g id="a_node8"><a xlink:href="../ui/services/code-to-svg/dot-sugar.ts" xlink:title="../ui/services/code&#45;to&#45;svg/dot&#45;sugar.ts">
<polygon fill="none" stroke="blue" points="409.16,-260 318.06,-260 318.06,-188 409.16,-188 409.16,-260"/>
<text text-anchor="middle" x="363.61" y="-219.2" font-family="Times,serif" font-size="16.00">dot&#45;sugar.ts</text>
</a>
</g>
</g>
<!-- ../ui/services/code&#45;to&#45;svg/dot&#45;sugar.ts&#45;&gt;../ui/services/code&#45;to&#45;svg/main.ts -->
<g id="edge9" class="edge">
<title>../ui/services/code&#45;to&#45;svg/dot&#45;sugar.ts&#45;&gt;../ui/services/code&#45;to&#45;svg/main.ts</title>
<path fill="none" stroke="blue" d="M409.57,-253.12C439,-273.3 477.39,-301.81 507.27,-331.6 512.12,-336.43 516.89,-341.74 521.47,-347.18"/>
<polygon fill="blue" stroke="blue" points="518.51,-349.08 527.53,-354.64 523.94,-344.67 518.51,-349.08"/>
<text text-anchor="middle" x="470.94" y="-335.2" font-family="Times,serif" font-size="12.00">DotSugar</text>
</g>
<!-- ../ui/services/code&#45;to&#45;svg/interface.ts -->
<g id="node9" class="node">
<title>../ui/services/code&#45;to&#45;svg/interface.ts</title>
<g id="a_node9"><a xlink:href="../ui/services/code-to-svg/interface.ts" xlink:title="../ui/services/code&#45;to&#45;svg/interface.ts">
<polygon fill="none" stroke="blue" points="140.84,-472 54.22,-472 54.22,-274 140.84,-274 140.84,-472"/>
<text text-anchor="middle" x="97.53" y="-368.2" font-family="Times,serif" font-size="16.00">interface.ts</text>
</a>
</g>
</g>
<!-- ../ui/services/code&#45;to&#45;svg/interface.ts&#45;&gt;../ui/services/code&#45;to&#45;svg/main.ts -->
<g id="edge10" class="edge">
<title>../ui/services/code&#45;to&#45;svg/interface.ts&#45;&gt;../ui/services/code&#45;to&#45;svg/main.ts</title>
<path fill="none" stroke="blue" d="M141.18,-403.24C159.4,-414.96 181.36,-427.56 202.67,-436 291.59,-471.2 322.81,-477.64 416.61,-459 452.48,-451.87 490.64,-435.56 518.44,-421.89"/>
<polygon fill="blue" stroke="blue" points="519.84,-425.1 527.21,-417.48 516.7,-418.85 519.84,-425.1"/>
<text text-anchor="middle" x="363.61" y="-501.61" font-family="Times,serif" font-size="12.00">Code</text>
<text text-anchor="middle" x="363.61" y="-487.21" font-family="Times,serif" font-size="12.00">CodeToSvgConvertor</text>
<text text-anchor="middle" x="363.61" y="-472.81" font-family="Times,serif" font-size="12.00">Svg</text>
</g>
<!-- ../ui/services/code&#45;to&#45;svg/interface.ts&#45;&gt;../ui/services/code&#45;to&#45;svg/dot&#45;sugar.ts -->
<g id="edge11" class="edge">
<title>../ui/services/code&#45;to&#45;svg/interface.ts&#45;&gt;../ui/services/code&#45;to&#45;svg/dot&#45;sugar.ts</title>
<path fill="none" stroke="blue" d="M141.12,-337.81C159.42,-323.59 181.45,-307.64 202.67,-295.2 236.13,-275.59 275.96,-257.84 307.5,-244.97"/>
<polygon fill="blue" stroke="blue" points="308.49,-248.35 316.46,-241.36 305.87,-241.85 308.49,-248.35"/>
<text text-anchor="middle" x="247.64" y="-313.2" font-family="Times,serif" font-size="12.00">Dot</text>
<text text-anchor="middle" x="247.64" y="-298.8" font-family="Times,serif" font-size="12.00">Sugar</text>
</g>
<!-- ../ui/services/code&#45;to&#45;svg/graph&#45;viz.ts -->
<g id="node10" class="node">
<title>../ui/services/code&#45;to&#45;svg/graph&#45;viz.ts</title>
<g id="a_node10"><a xlink:href="../ui/services/code-to-svg/graph-viz.ts" xlink:title="../ui/services/code&#45;to&#45;svg/graph&#45;viz.ts">
<polygon fill="none" stroke="blue" points="409.6,-359.5 317.62,-359.5 317.62,-278.5 409.6,-278.5 409.6,-359.5"/>
<text text-anchor="middle" x="363.61" y="-314.2" font-family="Times,serif" font-size="16.00">graph&#45;viz.ts</text>
</a>
</g>
</g>
<!-- ../ui/services/code&#45;to&#45;svg/interface.ts&#45;&gt;../ui/services/code&#45;to&#45;svg/graph&#45;viz.ts -->
<g id="edge12" class="edge">
<title>../ui/services/code&#45;to&#45;svg/interface.ts&#45;&gt;../ui/services/code&#45;to&#45;svg/graph&#45;viz.ts</title>
<path fill="none" stroke="blue" d="M141.27,-359.2C159.97,-353.53 182.26,-347.26 202.67,-342.8 236.6,-335.39 275.08,-329.59 305.79,-325.56"/>
<polygon fill="blue" stroke="blue" points="306.18,-329.04 315.66,-324.3 305.3,-322.1 306.18,-329.04"/>
<text text-anchor="middle" x="247.64" y="-375.2" font-family="Times,serif" font-size="12.00">Dot</text>
<text text-anchor="middle" x="247.64" y="-360.8" font-family="Times,serif" font-size="12.00">GraphVizInterface</text>
<text text-anchor="middle" x="247.64" y="-346.4" font-family="Times,serif" font-size="12.00">Svg</text>
</g>
<!-- ../ui/services/code&#45;to&#45;svg/json&#45;sugar.ts -->
<g id="node11" class="node">
<title>../ui/services/code&#45;to&#45;svg/json&#45;sugar.ts</title>
<g id="a_node11"><a xlink:href="../ui/services/code-to-svg/json-sugar.ts" xlink:title="../ui/services/code&#45;to&#45;svg/json&#45;sugar.ts">
<polygon fill="none" stroke="blue" points="412.27,-450 314.95,-450 314.95,-378 412.27,-378 412.27,-450"/>
<text text-anchor="middle" x="363.61" y="-409.2" font-family="Times,serif" font-size="16.00">json&#45;sugar.ts</text>
</a>
</g>
</g>
<!-- ../ui/services/code&#45;to&#45;svg/interface.ts&#45;&gt;../ui/services/code&#45;to&#45;svg/json&#45;sugar.ts -->
<g id="edge13" class="edge">
<title>../ui/services/code&#45;to&#45;svg/interface.ts&#45;&gt;../ui/services/code&#45;to&#45;svg/json&#45;sugar.ts</title>
<path fill="none" stroke="blue" d="M141.25,-379.63C185.27,-386.47 254.21,-397.17 303.45,-404.82"/>
<polygon fill="blue" stroke="blue" points="302.67,-408.24 313.09,-406.31 303.74,-401.32 302.67,-408.24"/>
<text text-anchor="middle" x="247.64" y="-421" font-family="Times,serif" font-size="12.00">Json</text>
<text text-anchor="middle" x="247.64" y="-406.6" font-family="Times,serif" font-size="12.00">Sugar</text>
</g>
<!-- ../ui/services/code&#45;to&#45;svg/graph&#45;viz.ts&#45;&gt;../ui/services/code&#45;to&#45;svg/main.ts -->
<g id="edge8" class="edge">
<title>../ui/services/code&#45;to&#45;svg/graph&#45;viz.ts&#45;&gt;../ui/services/code&#45;to&#45;svg/main.ts</title>
<path fill="none" stroke="blue" d="M409.73,-337.79C442.5,-351.43 486.49,-369.75 518.24,-382.97"/>
<polygon fill="blue" stroke="blue" points="516.54,-386.05 527.11,-386.66 519.23,-379.59 516.54,-386.05"/>
<text text-anchor="middle" x="470.94" y="-381.88" font-family="Times,serif" font-size="12.00">GraphViz</text>
</g>
<!-- ../ui&#45;dist/index.js -->
<g id="node12" class="node">
<title>../ui&#45;dist/index.js</title>
<g id="a_node12"><a xlink:href="../ui-dist/index.js" xlink:title="../ui&#45;dist/index.js">
<polygon fill="none" stroke="blue" points="130.64,-686 64.42,-686 64.42,-650 130.64,-650 130.64,-686"/>
<text text-anchor="middle" x="97.53" y="-663.2" font-family="Times,serif" font-size="16.00">index.js</text>
</a>
</g>
</g>
<!-- ../test/data&#45;samples/examples.ts -->
<g id="node13" class="node">
<title>../test/data&#45;samples/examples.ts</title>
<g id="a_node13"><a xlink:href="../test/data-samples/examples.ts" xlink:title="../test/data&#45;samples/examples.ts">
<polygon fill="none" stroke="blue" points="143.08,-854.5 51.98,-854.5 51.98,-791.5 143.08,-791.5 143.08,-854.5"/>
<text text-anchor="middle" x="97.53" y="-818.2" font-family="Times,serif" font-size="16.00">examples.ts</text>
</a>
</g>
</g>
<!-- ../api/router.ts -->
<g id="node14" class="node">
<title>../api/router.ts</title>
<g id="a_node14"><a xlink:href="../api/router.ts" xlink:title="../api/router.ts">
<polygon fill="none" stroke="blue" points="398.05,-753.5 329.17,-753.5 329.17,-690.5 398.05,-690.5 398.05,-753.5"/>
<text text-anchor="middle" x="363.61" y="-717.2" font-family="Times,serif" font-size="16.00">router.ts</text>
</a>
</g>
</g>
<!-- ../test/data&#45;samples/examples.ts&#45;&gt;../api/router.ts -->
<g id="edge14" class="edge">
<title>../test/data&#45;samples/examples.ts&#45;&gt;../api/router.ts</title>
<path fill="none" stroke="blue" d="M143.33,-805.87C192.17,-787.19 269.83,-757.48 318.43,-738.9"/>
<polygon fill="blue" stroke="blue" points="319.43,-742.26 327.52,-735.42 316.93,-735.72 319.43,-742.26"/>
<text text-anchor="middle" x="247.64" y="-785.15" font-family="Times,serif" font-size="12.00">* as examples</text>
</g>
<!-- ../server.ts -->
<g id="node16" class="node">
<title>../server.ts</title>
<g id="a_node16"><a xlink:href="../server.ts" xlink:title="../server.ts">
<polygon fill="none" stroke="blue" points="595.03,-828 525.27,-828 525.27,-702 595.03,-702 595.03,-828"/>
<text text-anchor="middle" x="560.15" y="-760.2" font-family="Times,serif" font-size="16.00">server.ts</text>
</a>
</g>
</g>
<!-- ../api/router.ts&#45;&gt;../server.ts -->
<g id="edge15" class="edge">
<title>../api/router.ts&#45;&gt;../server.ts</title>
<path fill="none" stroke="blue" d="M398.5,-729.49C430.52,-736.57 478.77,-747.23 514.04,-755.03"/>
<polygon fill="blue" stroke="blue" points="513,-758.38 523.52,-757.12 514.51,-751.55 513,-758.38"/>
<text text-anchor="middle" x="470.94" y="-757.07" font-family="Times,serif" font-size="12.00">router</text>
</g>
<!-- ../config.ts -->
<g id="node15" class="node">
<title>../config.ts</title>
<g id="a_node15"><a xlink:href="../config.ts" xlink:title="../config.ts">
<polygon fill="none" stroke="blue" points="399.38,-870.5 327.84,-870.5 327.84,-771.5 399.38,-771.5 399.38,-870.5"/>
<text text-anchor="middle" x="363.61" y="-816.2" font-family="Times,serif" font-size="16.00">config.ts</text>
</a>
</g>
</g>
<!-- ../config.ts&#45;&gt;../server.ts -->
<g id="edge16" class="edge">
<title>../config.ts&#45;&gt;../server.ts</title>
<path fill="none" stroke="blue" d="M399.84,-810.86C431.85,-801.64 479.25,-788 514.02,-777.99"/>
<polygon fill="blue" stroke="blue" points="514.74,-781.43 523.38,-775.3 512.8,-774.7 514.74,-781.43"/>
<text text-anchor="middle" x="470.94" y="-846.46" font-family="Times,serif" font-size="12.00">importMapFile</text>
<text text-anchor="middle" x="470.94" y="-832.06" font-family="Times,serif" font-size="12.00">uiEntrypoints</text>
<text text-anchor="middle" x="470.94" y="-817.66" font-family="Times,serif" font-size="12.00">uiOutDir</text>
<text text-anchor="middle" x="470.94" y="-803.26" font-family="Times,serif" font-size="12.00">uiSourceDir</text>
</g>
</g>
</svg>

