<?xml version="1.0" encoding="UTF-8" standalone="no"?>
<!DOCTYPE svg PUBLIC "-//W3C//DTD SVG 1.1//EN"
 "http://www.w3.org/Graphics/SVG/1.1/DTD/svg11.dtd">
<!-- Generated by graphviz version 12.1.1 (20240910.0053)
 -->
<!-- Title: imports Pages: 1 -->
<svg width="1114pt" height="985pt"
 viewBox="0.00 0.00 1114.29 985.00" xmlns="http://www.w3.org/2000/svg" xmlns:xlink="http://www.w3.org/1999/xlink">
<g id="graph0" class="graph" transform="scale(1 1) rotate(0) translate(4 981)">
<title>imports</title>
<polygon fill="white" stroke="none" points="-4,4 -4,-981 1110.29,-981 1110.29,4 -4,4"/>
<g id="clust1" class="cluster">
<title>cluster___</title>
<polygon fill="none" stroke="blue" points="8,-8 8,-969 1098.29,-969 1098.29,-8 8,-8"/>
<text text-anchor="middle" x="553.15" y="-19.2" font-family="Times,serif" font-size="24.00">..</text>
</g>
<g id="clust2" class="cluster">
<title>cluster_ui</title>
<polygon fill="none" stroke="blue" points="16,-53 16,-687 1090.29,-687 1090.29,-53 16,-53"/>
<text text-anchor="middle" x="553.15" y="-64.2" font-family="Times,serif" font-size="24.00">ui</text>
</g>
<g id="clust3" class="cluster">
<title>cluster_components</title>
<polygon fill="none" stroke="blue" points="776.79,-256 776.79,-679 908.77,-679 908.77,-256 776.79,-256"/>
<text text-anchor="middle" x="842.78" y="-267.2" font-family="Times,serif" font-size="24.00">components</text>
</g>
<g id="clust4" class="cluster">
<title>cluster_services</title>
<polygon fill="none" stroke="blue" points="24,-98 24,-571 643.93,-571 643.93,-98 24,-98"/>
<text text-anchor="middle" x="333.96" y="-109.2" font-family="Times,serif" font-size="24.00">services</text>
</g>
<g id="clust5" class="cluster">
<title>cluster_code_to_svg</title>
<polygon fill="none" stroke="blue" points="32,-143 32,-563 635.93,-563 635.93,-143 32,-143"/>
<text text-anchor="middle" x="333.96" y="-154.2" font-family="Times,serif" font-size="24.00">code&#45;to&#45;svg</text>
</g>
<g id="clust6" class="cluster">
<title>cluster_ui_dist</title>
<polygon fill="none" stroke="blue" points="57.33,-695 57.33,-784 139.55,-784 139.55,-695 57.33,-695"/>
<text text-anchor="middle" x="98.44" y="-706.2" font-family="Times,serif" font-size="24.00">ui&#45;dist</text>
</g>
<g id="clust7" class="cluster">
<title>cluster_test</title>
<polygon fill="none" stroke="blue" points="20.29,-792 20.29,-961 177.58,-961 177.58,-792 20.29,-792"/>
<text text-anchor="middle" x="98.94" y="-803.2" font-family="Times,serif" font-size="24.00">test</text>
</g>
<g id="clust8" class="cluster">
<title>cluster_data_samples</title>
<polygon fill="none" stroke="blue" points="28.29,-837 28.29,-953 169.58,-953 169.58,-837 28.29,-837"/>
<text text-anchor="middle" x="98.94" y="-848.2" font-family="Times,serif" font-size="24.00">data&#45;samples</text>
</g>
<g id="clust9" class="cluster">
<title>cluster_api</title>
<polygon fill="none" stroke="blue" points="318.97,-736 318.97,-852 403.84,-852 403.84,-736 318.97,-736"/>
<text text-anchor="middle" x="361.41" y="-747.2" font-family="Times,serif" font-size="24.00">api</text>
</g>
<!-- ../ui/state&#45;management.ts -->
<g id="node1" class="node">
<title>../ui/state&#45;management.ts</title>
<g id="a_node1"><a xlink:href="../ui/state-management.ts" xlink:title="../ui/state&#45;management.ts">
<polygon fill="none" stroke="blue" points="670.13,-678.5 523.06,-678.5 523.06,-579.5 670.13,-579.5 670.13,-678.5"/>
<text text-anchor="middle" x="596.6" y="-624.2" font-family="Times,serif" font-size="16.00">state&#45;management.ts</text>
</a>
</g>
</g>
<!-- ../ui/components/top&#45;menu.ts -->
<g id="node4" class="node">
<title>../ui/components/top&#45;menu.ts</title>
<g id="a_node4"><a xlink:href="../ui/components/top-menu.ts" xlink:title="../ui/components/top&#45;menu.ts">
<polygon fill="none" stroke="blue" points="888.28,-589.5 796.29,-589.5 796.29,-490.5 888.28,-490.5 888.28,-589.5"/>
<text text-anchor="middle" x="842.28" y="-535.2" font-family="Times,serif" font-size="16.00">top&#45;menu.ts</text>
</a>
</g>
</g>
<!-- ../ui/state&#45;management.ts&#45;&gt;../ui/components/top&#45;menu.ts -->
<g id="edge4" class="edge">
<title>../ui/state&#45;management.ts&#45;&gt;../ui/components/top&#45;menu.ts</title>
<path fill="none" stroke="blue" d="M670.38,-602.42C707.21,-588.97 751.21,-572.9 785.34,-560.43"/>
<polygon fill="blue" stroke="blue" points="786.44,-563.75 794.64,-557.04 784.04,-557.18 786.44,-563.75"/>
<text text-anchor="middle" x="719.46" y="-613.09" font-family="Times,serif" font-size="12.00">hideEditor</text>
<text text-anchor="middle" x="719.46" y="-598.69" font-family="Times,serif" font-size="12.00">setCode</text>
</g>
<!-- ../ui/components/draw&#45;graph.ts -->
<g id="node5" class="node">
<title>../ui/components/draw&#45;graph.ts</title>
<g id="a_node5"><a xlink:href="../ui/components/draw-graph.ts" xlink:title="../ui/components/draw&#45;graph.ts">
<polygon fill="none" stroke="blue" points="894.49,-391 790.08,-391 790.08,-301 894.49,-301 894.49,-391"/>
<text text-anchor="middle" x="842.28" y="-341.2" font-family="Times,serif" font-size="16.00">draw&#45;graph.ts</text>
</a>
</g>
</g>
<!-- ../ui/state&#45;management.ts&#45;&gt;../ui/components/draw&#45;graph.ts -->
<g id="edge6" class="edge">
<title>../ui/state&#45;management.ts&#45;&gt;../ui/components/draw&#45;graph.ts</title>
<path fill="none" stroke="blue" d="M661.42,-579.33C664.63,-575.39 667.58,-571.27 670.13,-567 689.56,-534.44 669.39,-516.57 688.13,-483.6 710.56,-444.11 748.45,-409.93 780.93,-385.51"/>
<polygon fill="blue" stroke="blue" points="782.74,-388.53 788.71,-379.78 778.59,-382.89 782.74,-388.53"/>
<text text-anchor="middle" x="719.46" y="-487.2" font-family="Times,serif" font-size="12.00">getCode</text>
</g>
<!-- ../ui/components/read&#45;file.ts -->
<g id="node2" class="node">
<title>../ui/components/read&#45;file.ts</title>
<g id="a_node2"><a xlink:href="../ui/components/read-file.ts" xlink:title="../ui/components/read&#45;file.ts">
<polygon fill="none" stroke="blue" points="884.71,-670.5 799.86,-670.5 799.86,-607.5 884.71,-607.5 884.71,-670.5"/>
<text text-anchor="middle" x="842.28" y="-634.2" font-family="Times,serif" font-size="16.00">read&#45;file.ts</text>
</a>
</g>
</g>
<!-- ../ui/components/read&#45;file.ts&#45;&gt;../ui/state&#45;management.ts -->
<g id="edge1" class="edge">
<title>../ui/components/read&#45;file.ts&#45;&gt;../ui/state&#45;management.ts</title>
<path fill="none" stroke="blue" d="M799.64,-637.29C767.35,-635.97 721.55,-634.09 681.71,-632.45"/>
<polygon fill="blue" stroke="blue" points="682.03,-628.96 671.89,-632.05 681.74,-635.96 682.03,-628.96"/>
<text text-anchor="middle" x="719.46" y="-638.79" font-family="Times,serif" font-size="12.00">ReadFile</text>
</g>
<!-- ../ui/components/code&#45;editor.ts -->
<g id="node3" class="node">
<title>../ui/components/code&#45;editor.ts</title>
<g id="a_node3"><a xlink:href="../ui/components/code-editor.ts" xlink:title="../ui/components/code&#45;editor.ts">
<polygon fill="none" stroke="blue" points="894.04,-472.5 790.52,-472.5 790.52,-409.5 894.04,-409.5 894.04,-472.5"/>
<text text-anchor="middle" x="842.28" y="-436.2" font-family="Times,serif" font-size="16.00">code&#45;editor.ts</text>
</a>
</g>
</g>
<!-- ../ui/components/code&#45;editor.ts&#45;&gt;../ui/state&#45;management.ts -->
<g id="edge2" class="edge">
<title>../ui/components/code&#45;editor.ts&#45;&gt;../ui/state&#45;management.ts</title>
<path fill="none" stroke="blue" d="M790.21,-472.66C785.62,-475.75 781.09,-478.89 776.79,-482 754.81,-497.92 706.23,-537.88 665.19,-572.13"/>
<polygon fill="blue" stroke="blue" points="663.16,-569.27 657.73,-578.37 667.64,-574.64 663.16,-569.27"/>
<text text-anchor="middle" x="719.46" y="-554.41" font-family="Times,serif" font-size="12.00">CodeEditor</text>
</g>
<!-- ../ui/index.ts -->
<g id="node6" class="node">
<title>../ui/index.ts</title>
<g id="a_node6"><a xlink:href="../ui/index.ts" xlink:title="../ui/index.ts">
<polygon fill="none" stroke="blue" points="1082.29,-548 1016.07,-548 1016.07,-458 1082.29,-458 1082.29,-548"/>
<text text-anchor="middle" x="1049.18" y="-498.2" font-family="Times,serif" font-size="16.00">index.ts</text>
</a>
</g>
</g>
<!-- ../ui/components/top&#45;menu.ts&#45;&gt;../ui/index.ts -->
<g id="edge7" class="edge">
<title>../ui/components/top&#45;menu.ts&#45;&gt;../ui/index.ts</title>
<path fill="none" stroke="blue" d="M888.64,-535.36C919.67,-531.75 961.62,-526 998.07,-518 1000.23,-517.53 1002.44,-517.01 1004.66,-516.45"/>
<polygon fill="blue" stroke="blue" points="1005.54,-519.84 1014.29,-513.87 1003.72,-513.08 1005.54,-519.84"/>
<text text-anchor="middle" x="966.42" y="-532.29" font-family="Times,serif" font-size="12.00">TopMenu</text>
</g>
<!-- ../ui/components/draw&#45;graph.ts&#45;&gt;../ui/index.ts -->
<g id="edge8" class="edge">
<title>../ui/components/draw&#45;graph.ts&#45;&gt;../ui/index.ts</title>
<path fill="none" stroke="blue" d="M894.99,-385.62C929.66,-412.19 974.72,-446.71 1006.98,-471.43"/>
<polygon fill="blue" stroke="blue" points="1004.45,-473.9 1014.51,-477.2 1008.7,-468.34 1004.45,-473.9"/>
<text text-anchor="middle" x="966.42" y="-464.49" font-family="Times,serif" font-size="12.00">DrawGraph</text>
</g>
<!-- ../ui/index.ts&#45;&gt;../ui/components/top&#45;menu.ts -->
<g id="edge3" class="edge">
<title>../ui/index.ts&#45;&gt;../ui/components/top&#45;menu.ts</title>
<path fill="none" stroke="blue" d="M1015.6,-499.99C992.76,-498.65 961.64,-498.38 934.77,-503.6 922.83,-505.92 910.45,-509.77 898.8,-514.11"/>
<polygon fill="blue" stroke="blue" points="897.78,-510.75 889.75,-517.66 900.34,-517.27 897.78,-510.75"/>
<text text-anchor="middle" x="966.42" y="-507.2" font-family="Times,serif" font-size="12.00">graphDrawer</text>
</g>
<!-- ../ui/services/code&#45;to&#45;svg/json&#45;to&#45;graph.ts -->
<g id="node7" class="node">
<title>../ui/services/code&#45;to&#45;svg/json&#45;to&#45;graph.ts</title>
<g id="a_node7"><a xlink:href="../ui/services/code-to-svg/json-to-graph.ts" xlink:title="../ui/services/code&#45;to&#45;svg/json&#45;to&#45;graph.ts">
<polygon fill="none" stroke="blue" points="156.88,-504.5 40,-504.5 40,-441.5 156.88,-441.5 156.88,-504.5"/>
<text text-anchor="middle" x="98.44" y="-468.2" font-family="Times,serif" font-size="16.00">json&#45;to&#45;graph.ts</text>
</a>
</g>
</g>
<!-- ../ui/services/code&#45;to&#45;svg/graph&#45;viz.ts -->
<g id="node11" class="node">
<title>../ui/services/code&#45;to&#45;svg/graph&#45;viz.ts</title>
<g id="a_node11"><a xlink:href="../ui/services/code-to-svg/graph-viz.ts" xlink:title="../ui/services/code&#45;to&#45;svg/graph&#45;viz.ts">
<polygon fill="none" stroke="blue" points="407.4,-465 315.42,-465 315.42,-357 407.4,-357 407.4,-465"/>
<text text-anchor="middle" x="361.41" y="-406.2" font-family="Times,serif" font-size="16.00">graph&#45;viz.ts</text>
</a>
</g>
</g>
<!-- ../ui/services/code&#45;to&#45;svg/json&#45;to&#45;graph.ts&#45;&gt;../ui/services/code&#45;to&#45;svg/graph&#45;viz.ts -->
<g id="edge14" class="edge">
<title>../ui/services/code&#45;to&#45;svg/json&#45;to&#45;graph.ts&#45;&gt;../ui/services/code&#45;to&#45;svg/graph&#45;viz.ts</title>
<path fill="none" stroke="blue" d="M157.13,-472.38C195.7,-470.51 247.12,-465.2 290.41,-451 295.18,-449.44 299.98,-447.53 304.72,-445.4"/>
<polygon fill="blue" stroke="blue" points="306.11,-448.61 313.58,-441.1 303.06,-442.31 306.11,-448.61"/>
<text text-anchor="middle" x="245.44" y="-472.33" font-family="Times,serif" font-size="12.00">JsonToGraph</text>
</g>
<!-- ../ui/services/code&#45;to&#45;svg/main.ts -->
<g id="node8" class="node">
<title>../ui/services/code&#45;to&#45;svg/main.ts</title>
<g id="a_node8"><a xlink:href="../ui/services/code-to-svg/main.ts" xlink:title="../ui/services/code&#45;to&#45;svg/main.ts">
<polygon fill="none" stroke="blue" points="627.93,-453.5 565.26,-453.5 565.26,-318.5 627.93,-318.5 627.93,-453.5"/>
<text text-anchor="middle" x="596.6" y="-381.2" font-family="Times,serif" font-size="16.00">main.ts</text>
</a>
</g>
</g>
<!-- ../ui/services/code&#45;to&#45;svg/main.ts&#45;&gt;../ui/components/draw&#45;graph.ts -->
<g id="edge5" class="edge">
<title>../ui/services/code&#45;to&#45;svg/main.ts&#45;&gt;../ui/components/draw&#45;graph.ts</title>
<path fill="none" stroke="blue" d="M628.16,-370.51C645.32,-362.65 667.39,-353.87 688.13,-349.6 717.43,-343.57 750.56,-342.15 778.49,-342.44"/>
<polygon fill="blue" stroke="blue" points="778.14,-345.94 788.2,-342.63 778.27,-338.94 778.14,-345.94"/>
<text text-anchor="middle" x="719.46" y="-353.2" font-family="Times,serif" font-size="12.00">CodeToSVG</text>
</g>
<!-- ../ui/services/code&#45;to&#45;svg/dot&#45;sugar.ts -->
<g id="node9" class="node">
<title>../ui/services/code&#45;to&#45;svg/dot&#45;sugar.ts</title>
<g id="a_node9"><a xlink:href="../ui/services/code-to-svg/dot-sugar.ts" xlink:title="../ui/services/code&#45;to&#45;svg/dot&#45;sugar.ts">
<polygon fill="none" stroke="blue" points="406.96,-555 315.86,-555 315.86,-483 406.96,-483 406.96,-555"/>
<text text-anchor="middle" x="361.41" y="-514.2" font-family="Times,serif" font-size="16.00">dot&#45;sugar.ts</text>
</a>
</g>
</g>
<!-- ../ui/services/code&#45;to&#45;svg/dot&#45;sugar.ts&#45;&gt;../ui/services/code&#45;to&#45;svg/main.ts -->
<g id="edge10" class="edge">
<title>../ui/services/code&#45;to&#45;svg/dot&#45;sugar.ts&#45;&gt;../ui/services/code&#45;to&#45;svg/main.ts</title>
<path fill="none" stroke="blue" d="M407.37,-493.36C450.07,-469 513.7,-432.71 554.93,-409.19"/>
<polygon fill="blue" stroke="blue" points="556.63,-412.25 563.59,-404.26 553.17,-406.17 556.63,-412.25"/>
<text text-anchor="middle" x="468.73" y="-479.58" font-family="Times,serif" font-size="12.00">DotSugar</text>
</g>
<!-- ../ui/services/code&#45;to&#45;svg/interface.ts -->
<g id="node10" class="node">
<title>../ui/services/code&#45;to&#45;svg/interface.ts</title>
<g id="a_node10"><a xlink:href="../ui/services/code-to-svg/interface.ts" xlink:title="../ui/services/code&#45;to&#45;svg/interface.ts">
<polygon fill="none" stroke="blue" points="141.75,-413 55.12,-413 55.12,-215 141.75,-215 141.75,-413"/>
<text text-anchor="middle" x="98.44" y="-309.2" font-family="Times,serif" font-size="16.00">interface.ts</text>
</a>
</g>
</g>
<!-- ../ui/services/code&#45;to&#45;svg/interface.ts&#45;&gt;../ui/services/code&#45;to&#45;svg/main.ts -->
<g id="edge11" class="edge">
<title>../ui/services/code&#45;to&#45;svg/interface.ts&#45;&gt;../ui/services/code&#45;to&#45;svg/main.ts</title>
<path fill="none" stroke="blue" d="M142.16,-282.01C203.38,-240.31 319.18,-176.93 414.4,-214.8 473.85,-238.44 525.06,-291.86 557.72,-332.79"/>
<polygon fill="blue" stroke="blue" points="554.95,-334.93 563.87,-340.65 560.47,-330.62 554.95,-334.93"/>
<text text-anchor="middle" x="361.41" y="-247.2" font-family="Times,serif" font-size="12.00">Code</text>
<text text-anchor="middle" x="361.41" y="-232.8" font-family="Times,serif" font-size="12.00">CodeToSvgConvertor</text>
<text text-anchor="middle" x="361.41" y="-218.4" font-family="Times,serif" font-size="12.00">Svg</text>
</g>
<!-- ../ui/services/code&#45;to&#45;svg/interface.ts&#45;&gt;../ui/services/code&#45;to&#45;svg/dot&#45;sugar.ts -->
<g id="edge12" class="edge">
<title>../ui/services/code&#45;to&#45;svg/interface.ts&#45;&gt;../ui/services/code&#45;to&#45;svg/dot&#45;sugar.ts</title>
<path fill="none" stroke="blue" d="M141.84,-357.68C158.76,-372.84 179.26,-388.63 200.47,-399 237.19,-416.96 260.08,-390.8 290.41,-418.2 309.75,-435.67 294.03,-452.27 308.41,-474 308.48,-474.1 308.54,-474.2 308.61,-474.3"/>
<polygon fill="blue" stroke="blue" points="305.7,-476.25 314.57,-482.05 311.25,-471.99 305.7,-476.25"/>
<text text-anchor="middle" x="245.44" y="-436.2" font-family="Times,serif" font-size="12.00">Dot</text>
<text text-anchor="middle" x="245.44" y="-421.8" font-family="Times,serif" font-size="12.00">Sugar</text>
</g>
<!-- ../ui/services/code&#45;to&#45;svg/interface.ts&#45;&gt;../ui/services/code&#45;to&#45;svg/graph&#45;viz.ts -->
<g id="edge13" class="edge">
<title>../ui/services/code&#45;to&#45;svg/interface.ts&#45;&gt;../ui/services/code&#45;to&#45;svg/graph&#45;viz.ts</title>
<path fill="none" stroke="blue" d="M142.01,-322.27C194.11,-332.54 277.1,-349.51 290.41,-355.8 295.61,-358.26 300.78,-361.17 305.81,-364.34"/>
<polygon fill="blue" stroke="blue" points="303.79,-367.2 314.04,-369.89 307.7,-361.4 303.79,-367.2"/>
<text text-anchor="middle" x="245.44" y="-388.2" font-family="Times,serif" font-size="12.00">Dot</text>
<text text-anchor="middle" x="245.44" y="-373.8" font-family="Times,serif" font-size="12.00">GraphVizInterface</text>
<text text-anchor="middle" x="245.44" y="-359.4" font-family="Times,serif" font-size="12.00">Svg</text>
</g>
<!-- ../ui/services/code&#45;to&#45;svg/json&#45;sugar.ts -->
<g id="node12" class="node">
<title>../ui/services/code&#45;to&#45;svg/json&#45;sugar.ts</title>
<g id="a_node12"><a xlink:href="../ui/services/code-to-svg/json-sugar.ts" xlink:title="../ui/services/code&#45;to&#45;svg/json&#45;sugar.ts">
<polygon fill="none" stroke="blue" points="410.07,-339 312.74,-339 312.74,-267 410.07,-267 410.07,-339"/>
<text text-anchor="middle" x="361.41" y="-298.2" font-family="Times,serif" font-size="16.00">json&#45;sugar.ts</text>
</a>
</g>
</g>
<!-- ../ui/services/code&#45;to&#45;svg/interface.ts&#45;&gt;../ui/services/code&#45;to&#45;svg/json&#45;sugar.ts -->
<g id="edge15" class="edge">
<title>../ui/services/code&#45;to&#45;svg/interface.ts&#45;&gt;../ui/services/code&#45;to&#45;svg/json&#45;sugar.ts</title>
<path fill="none" stroke="blue" d="M142.14,-309.01C160.12,-307.13 181.29,-305.2 200.47,-304.2 233.79,-302.46 271.06,-302.09 301.24,-302.19"/>
<polygon fill="blue" stroke="blue" points="300.9,-305.69 310.92,-302.24 300.94,-298.69 300.9,-305.69"/>
<text text-anchor="middle" x="245.44" y="-322.2" font-family="Times,serif" font-size="12.00">Json</text>
<text text-anchor="middle" x="245.44" y="-307.8" font-family="Times,serif" font-size="12.00">Sugar</text>
</g>
<!-- ../ui/services/code&#45;to&#45;svg/graph&#45;viz.ts&#45;&gt;../ui/services/code&#45;to&#45;svg/main.ts -->
<g id="edge9" class="edge">
<title>../ui/services/code&#45;to&#45;svg/graph&#45;viz.ts&#45;&gt;../ui/services/code&#45;to&#45;svg/main.ts</title>
<path fill="none" stroke="blue" d="M407.64,-406.15C449.93,-401.62 512.55,-394.9 553.71,-390.49"/>
<polygon fill="blue" stroke="blue" points="553.9,-393.99 563.47,-389.44 553.16,-387.03 553.9,-393.99"/>
<text text-anchor="middle" x="468.73" y="-406.51" font-family="Times,serif" font-size="12.00">GraphViz</text>
</g>
<!-- ../ui&#45;dist/index.js -->
<g id="node13" class="node">
<title>../ui&#45;dist/index.js</title>
<g id="a_node13"><a xlink:href="../ui-dist/index.js" xlink:title="../ui&#45;dist/index.js">
<polygon fill="none" stroke="blue" points="131.55,-776 65.33,-776 65.33,-740 131.55,-740 131.55,-776"/>
<text text-anchor="middle" x="98.44" y="-753.2" font-family="Times,serif" font-size="16.00">index.js</text>
</a>
</g>
</g>
<!-- ../test/data&#45;samples/examples.ts -->
<g id="node14" class="node">
<title>../test/data&#45;samples/examples.ts</title>
<g id="a_node14"><a xlink:href="../test/data-samples/examples.ts" xlink:title="../test/data&#45;samples/examples.ts">
<polygon fill="none" stroke="blue" points="143.98,-944.5 52.89,-944.5 52.89,-881.5 143.98,-881.5 143.98,-944.5"/>
<text text-anchor="middle" x="98.44" y="-908.2" font-family="Times,serif" font-size="16.00">examples.ts</text>
</a>
</g>
</g>
<!-- ../api/router.ts -->
<g id="node15" class="node">
<title>../api/router.ts</title>
<g id="a_node15"><a xlink:href="../api/router.ts" xlink:title="../api/router.ts">
<polygon fill="none" stroke="blue" points="395.84,-843.5 326.97,-843.5 326.97,-780.5 395.84,-780.5 395.84,-843.5"/>
<text text-anchor="middle" x="361.41" y="-807.2" font-family="Times,serif" font-size="16.00">router.ts</text>
</a>
</g>
</g>
<!-- ../test/data&#45;samples/examples.ts&#45;&gt;../api/router.ts -->
<g id="edge16" class="edge">
<title>../test/data&#45;samples/examples.ts&#45;&gt;../api/router.ts</title>
<path fill="none" stroke="blue" d="M144.3,-895.64C192.3,-877.06 267.96,-847.78 315.85,-829.25"/>
<polygon fill="blue" stroke="blue" points="317.03,-832.54 325.09,-825.67 314.5,-826.01 317.03,-832.54"/>
<text text-anchor="middle" x="245.44" y="-875.15" font-family="Times,serif" font-size="12.00">* as examples</text>
</g>
<!-- ../server.ts -->
<g id="node17" class="node">
<title>../server.ts</title>
<g id="a_node17"><a xlink:href="../server.ts" xlink:title="../server.ts">
<polygon fill="none" stroke="blue" points="631.47,-918 561.72,-918 561.72,-792 631.47,-792 631.47,-918"/>
<text text-anchor="middle" x="596.6" y="-850.2" font-family="Times,serif" font-size="16.00">server.ts</text>
</a>
</g>
</g>
<!-- ../api/router.ts&#45;&gt;../server.ts -->
<g id="edge17" class="edge">
<title>../api/router.ts&#45;&gt;../server.ts</title>
<path fill="none" stroke="blue" d="M396.31,-818.25C436.87,-825.73 504.92,-838.28 550.04,-846.6"/>
<polygon fill="blue" stroke="blue" points="549.31,-850.02 559.78,-848.4 550.58,-843.14 549.31,-850.02"/>
<text text-anchor="middle" x="468.73" y="-840.95" font-family="Times,serif" font-size="12.00">router</text>
</g>
<!-- ../config.ts -->
<g id="node16" class="node">
<title>../config.ts</title>
<g id="a_node16"><a xlink:href="../config.ts" xlink:title="../config.ts">
<polygon fill="none" stroke="blue" points="397.18,-960.5 325.63,-960.5 325.63,-861.5 397.18,-861.5 397.18,-960.5"/>
<text text-anchor="middle" x="361.41" y="-906.2" font-family="Times,serif" font-size="16.00">config.ts</text>
</a>
</g>
</g>
<!-- ../config.ts&#45;&gt;../server.ts -->
<g id="edge18" class="edge">
<title>../config.ts&#45;&gt;../server.ts</title>
<path fill="none" stroke="blue" d="M397.57,-902.56C438.3,-892.77 505.52,-876.63 550.17,-865.91"/>
<polygon fill="blue" stroke="blue" points="550.91,-869.33 559.82,-863.59 549.28,-862.52 550.91,-869.33"/>
<text text-anchor="middle" x="468.73" y="-939.69" font-family="Times,serif" font-size="12.00">importMapFile</text>
<text text-anchor="middle" x="468.73" y="-925.29" font-family="Times,serif" font-size="12.00">uiEntrypoints</text>
<text text-anchor="middle" x="468.73" y="-910.89" font-family="Times,serif" font-size="12.00">uiOutDir</text>
<text text-anchor="middle" x="468.73" y="-896.49" font-family="Times,serif" font-size="12.00">uiSourceDir</text>
</g>
</g>
</svg>

