<?xml version="1.0" encoding="UTF-8" standalone="no"?>
<!DOCTYPE svg PUBLIC "-//W3C//DTD SVG 1.1//EN"
 "http://www.w3.org/Graphics/SVG/1.1/DTD/svg11.dtd">
<!-- Generated by graphviz version 12.1.1 (20240910.0053)
 -->
<!-- Title: imports Pages: 1 -->
<svg width="1043pt" height="921pt"
 viewBox="0.00 0.00 1042.55 921.00" xmlns="http://www.w3.org/2000/svg" xmlns:xlink="http://www.w3.org/1999/xlink">
<g id="graph0" class="graph" transform="scale(1 1) rotate(0) translate(4 917)">
<title>imports</title>
<polygon fill="white" stroke="none" points="-4,4 -4,-917 1038.55,-917 1038.55,4 -4,4"/>
<g id="clust1" class="cluster">
<title>cluster___</title>
<polygon fill="none" stroke="blue" points="8,-8 8,-905 1026.55,-905 1026.55,-8 8,-8"/>
<text text-anchor="middle" x="517.27" y="-19.2" font-family="Times,serif" font-size="24.00">..</text>
</g>
<g id="clust2" class="cluster">
<title>cluster_ui</title>
<polygon fill="none" stroke="blue" points="16,-53 16,-623 1018.55,-623 1018.55,-53 16,-53"/>
<text text-anchor="middle" x="517.27" y="-64.2" font-family="Times,serif" font-size="24.00">ui</text>
</g>
<g id="clust3" class="cluster">
<title>cluster_components</title>
<polygon fill="none" stroke="blue" points="705.05,-98 705.05,-502 837.03,-502 837.03,-98 705.05,-98"/>
<text text-anchor="middle" x="771.04" y="-109.2" font-family="Times,serif" font-size="24.00">components</text>
</g>
<g id="clust4" class="cluster">
<title>cluster_services</title>
<polygon fill="none" stroke="blue" points="24,-98 24,-571 608.38,-571 608.38,-98 24,-98"/>
<text text-anchor="middle" x="316.19" y="-109.2" font-family="Times,serif" font-size="24.00">services</text>
</g>
<g id="clust5" class="cluster">
<title>cluster_code_to_svg</title>
<polygon fill="none" stroke="blue" points="32,-143 32,-563 600.38,-563 600.38,-143 32,-143"/>
<text text-anchor="middle" x="316.19" y="-154.2" font-family="Times,serif" font-size="24.00">code&#45;to&#45;svg</text>
</g>
<g id="clust6" class="cluster">
<title>cluster_ui_dist</title>
<polygon fill="none" stroke="blue" points="57.33,-631 57.33,-720 139.55,-720 139.55,-631 57.33,-631"/>
<text text-anchor="middle" x="98.44" y="-642.2" font-family="Times,serif" font-size="24.00">ui&#45;dist</text>
</g>
<g id="clust7" class="cluster">
<title>cluster_test</title>
<polygon fill="none" stroke="blue" points="20.29,-728 20.29,-897 177.58,-897 177.58,-728 20.29,-728"/>
<text text-anchor="middle" x="98.94" y="-739.2" font-family="Times,serif" font-size="24.00">test</text>
</g>
<g id="clust8" class="cluster">
<title>cluster_data_samples</title>
<polygon fill="none" stroke="blue" points="28.29,-773 28.29,-889 169.58,-889 169.58,-773 28.29,-773"/>
<text text-anchor="middle" x="98.94" y="-784.2" font-family="Times,serif" font-size="24.00">data&#45;samples</text>
</g>
<g id="clust9" class="cluster">
<title>cluster_api</title>
<polygon fill="none" stroke="blue" points="322.08,-672 322.08,-788 406.95,-788 406.95,-672 322.08,-672"/>
<text text-anchor="middle" x="364.52" y="-683.2" font-family="Times,serif" font-size="24.00">api</text>
</g>
<!-- ../ui/state&#45;management.ts -->
<g id="node1" class="node">
<title>../ui/state&#45;management.ts</title>
<g id="a_node1"><a xlink:href="../ui/state-management.ts" xlink:title="../ui/state&#45;management.ts">
<polygon fill="none" stroke="blue" points="171.97,-615 24.91,-615 24.91,-579 171.97,-579 171.97,-615"/>
<text text-anchor="middle" x="98.44" y="-592.2" font-family="Times,serif" font-size="16.00">state&#45;management.ts</text>
</a>
</g>
</g>
<!-- ../ui/components/read&#45;file.ts -->
<g id="node2" class="node">
<title>../ui/components/read&#45;file.ts</title>
<g id="a_node2"><a xlink:href="../ui/components/read-file.ts" xlink:title="../ui/components/read&#45;file.ts">
<polygon fill="none" stroke="blue" points="812.97,-205.5 728.12,-205.5 728.12,-142.5 812.97,-142.5 812.97,-205.5"/>
<text text-anchor="middle" x="770.54" y="-169.2" font-family="Times,serif" font-size="16.00">read&#45;file.ts</text>
</a>
</g>
</g>
<!-- ../ui/index.ts -->
<g id="node6" class="node">
<title>../ui/index.ts</title>
<g id="a_node6"><a xlink:href="../ui/index.ts" xlink:title="../ui/index.ts">
<polygon fill="none" stroke="blue" points="1010.55,-406 944.33,-406 944.33,-262 1010.55,-262 1010.55,-406"/>
<text text-anchor="middle" x="977.44" y="-329.2" font-family="Times,serif" font-size="16.00">index.ts</text>
</a>
</g>
</g>
<!-- ../ui/components/read&#45;file.ts&#45;&gt;../ui/index.ts -->
<g id="edge4" class="edge">
<title>../ui/components/read&#45;file.ts&#45;&gt;../ui/index.ts</title>
<path fill="none" stroke="blue" d="M813.34,-182.4C847.23,-191.05 894.43,-207.48 926.33,-236.6 931.49,-241.31 936.2,-246.68 940.49,-252.41"/>
<polygon fill="blue" stroke="blue" points="937.46,-254.19 946.02,-260.44 943.23,-250.22 937.46,-254.19"/>
<text text-anchor="middle" x="894.68" y="-240.2" font-family="Times,serif" font-size="12.00">ReadFile</text>
</g>
<!-- ../ui/components/code&#45;editor.ts -->
<g id="node3" class="node">
<title>../ui/components/code&#45;editor.ts</title>
<g id="a_node3"><a xlink:href="../ui/components/code-editor.ts" xlink:title="../ui/components/code&#45;editor.ts">
<polygon fill="none" stroke="blue" points="822.3,-286.5 718.78,-286.5 718.78,-223.5 822.3,-223.5 822.3,-286.5"/>
<text text-anchor="middle" x="770.54" y="-250.2" font-family="Times,serif" font-size="16.00">code&#45;editor.ts</text>
</a>
</g>
</g>
<!-- ../ui/components/code&#45;editor.ts&#45;&gt;../ui/index.ts -->
<g id="edge2" class="edge">
<title>../ui/components/code&#45;editor.ts&#45;&gt;../ui/index.ts</title>
<path fill="none" stroke="blue" d="M822.51,-251.83C854.18,-252.03 894.72,-256.38 926.33,-273.6 929.4,-275.27 932.36,-277.22 935.2,-279.36"/>
<polygon fill="blue" stroke="blue" points="932.84,-281.95 942.7,-285.82 937.41,-276.65 932.84,-281.95"/>
<text text-anchor="middle" x="894.68" y="-277.2" font-family="Times,serif" font-size="12.00">CodeEditor</text>
</g>
<!-- ../ui/components/top&#45;menu.ts -->
<g id="node4" class="node">
<title>../ui/components/top&#45;menu.ts</title>
<g id="a_node4"><a xlink:href="../ui/components/top-menu.ts" xlink:title="../ui/components/top&#45;menu.ts">
<polygon fill="none" stroke="blue" points="816.54,-385.5 724.54,-385.5 724.54,-304.5 816.54,-304.5 816.54,-385.5"/>
<text text-anchor="middle" x="770.54" y="-340.2" font-family="Times,serif" font-size="16.00">top&#45;menu.ts</text>
</a>
</g>
</g>
<!-- ../ui/components/top&#45;menu.ts&#45;&gt;../ui/index.ts -->
<g id="edge1" class="edge">
<title>../ui/components/top&#45;menu.ts&#45;&gt;../ui/index.ts</title>
<path fill="none" stroke="blue" d="M816.72,-347.56C847.67,-348.69 889.6,-348.98 926.33,-345 928.49,-344.77 930.69,-344.48 932.91,-344.14"/>
<polygon fill="blue" stroke="blue" points="933.26,-347.64 942.5,-342.45 932.05,-340.74 933.26,-347.64"/>
<text text-anchor="middle" x="894.68" y="-351.83" font-family="Times,serif" font-size="12.00">TopMenu</text>
</g>
<!-- ../ui/components/draw&#45;graph.ts -->
<g id="node5" class="node">
<title>../ui/components/draw&#45;graph.ts</title>
<g id="a_node5"><a xlink:href="../ui/components/draw-graph.ts" xlink:title="../ui/components/draw&#45;graph.ts">
<polygon fill="none" stroke="blue" points="822.75,-494 718.33,-494 718.33,-404 822.75,-404 822.75,-494"/>
<text text-anchor="middle" x="770.54" y="-444.2" font-family="Times,serif" font-size="16.00">draw&#45;graph.ts</text>
</a>
</g>
</g>
<!-- ../ui/components/draw&#45;graph.ts&#45;&gt;../ui/index.ts -->
<g id="edge3" class="edge">
<title>../ui/components/draw&#45;graph.ts&#45;&gt;../ui/index.ts</title>
<path fill="none" stroke="blue" d="M823.11,-423.24C853.54,-407.66 892.58,-386.99 926.33,-367 928.93,-365.46 931.58,-363.85 934.24,-362.19"/>
<polygon fill="blue" stroke="blue" points="935.99,-365.23 942.56,-356.92 932.24,-359.32 935.99,-365.23"/>
<text text-anchor="middle" x="894.68" y="-405.81" font-family="Times,serif" font-size="12.00">DrawGraph</text>
</g>
<!-- ../ui/index.ts&#45;&gt;../ui/components/top&#45;menu.ts -->
<g id="edge6" class="edge">
<title>../ui/index.ts&#45;&gt;../ui/components/top&#45;menu.ts</title>
<path fill="none" stroke="blue" d="M944.07,-306.32C938.46,-302.82 932.46,-299.78 926.33,-297.8 899.56,-289.14 890.37,-291.16 863.03,-297.8 850.81,-300.77 838.39,-305.67 826.81,-311.22"/>
<polygon fill="blue" stroke="blue" points="825.57,-307.92 818.22,-315.55 828.73,-314.17 825.57,-307.92"/>
<text text-anchor="middle" x="894.68" y="-330.2" font-family="Times,serif" font-size="12.00">codeEditor</text>
<text text-anchor="middle" x="894.68" y="-315.8" font-family="Times,serif" font-size="12.00">graphDrawer</text>
<text text-anchor="middle" x="894.68" y="-301.4" font-family="Times,serif" font-size="12.00">readFile</text>
</g>
<!-- ../ui/index.ts&#45;&gt;../ui/components/draw&#45;graph.ts -->
<g id="edge14" class="edge">
<title>../ui/index.ts&#45;&gt;../ui/components/draw&#45;graph.ts</title>
<path fill="none" stroke="blue" d="M943.84,-404.26C938.7,-410.62 932.89,-416.38 926.33,-421 899.8,-439.68 864.55,-447.06 834.39,-449.59"/>
<polygon fill="blue" stroke="blue" points="834.37,-446.09 824.62,-450.24 834.83,-453.07 834.37,-446.09"/>
<text text-anchor="middle" x="894.68" y="-449.24" font-family="Times,serif" font-size="12.00">codeEditor</text>
</g>
<!-- ../ui/services/code&#45;to&#45;svg/json&#45;to&#45;graph.ts -->
<g id="node7" class="node">
<title>../ui/services/code&#45;to&#45;svg/json&#45;to&#45;graph.ts</title>
<g id="a_node7"><a xlink:href="../ui/services/code-to-svg/json-to-graph.ts" xlink:title="../ui/services/code&#45;to&#45;svg/json&#45;to&#45;graph.ts">
<polygon fill="none" stroke="blue" points="156.88,-532.5 40,-532.5 40,-469.5 156.88,-469.5 156.88,-532.5"/>
<text text-anchor="middle" x="98.44" y="-496.2" font-family="Times,serif" font-size="16.00">json&#45;to&#45;graph.ts</text>
</a>
</g>
</g>
<!-- ../ui/services/code&#45;to&#45;svg/graph&#45;viz.ts -->
<g id="node11" class="node">
<title>../ui/services/code&#45;to&#45;svg/graph&#45;viz.ts</title>
<g id="a_node11"><a xlink:href="../ui/services/code-to-svg/graph-viz.ts" xlink:title="../ui/services/code&#45;to&#45;svg/graph&#45;viz.ts">
<polygon fill="none" stroke="blue" points="410.5,-555 318.53,-555 318.53,-447 410.5,-447 410.5,-555"/>
<text text-anchor="middle" x="364.52" y="-496.2" font-family="Times,serif" font-size="16.00">graph&#45;viz.ts</text>
</a>
</g>
</g>
<!-- ../ui/services/code&#45;to&#45;svg/json&#45;to&#45;graph.ts&#45;&gt;../ui/services/code&#45;to&#45;svg/graph&#45;viz.ts -->
<g id="edge12" class="edge">
<title>../ui/services/code&#45;to&#45;svg/json&#45;to&#45;graph.ts&#45;&gt;../ui/services/code&#45;to&#45;svg/graph&#45;viz.ts</title>
<path fill="none" stroke="blue" d="M157.06,-501C201.51,-501 262.64,-501 306.84,-501"/>
<polygon fill="blue" stroke="blue" points="306.75,-504.5 316.75,-501 306.75,-497.5 306.75,-504.5"/>
<text text-anchor="middle" x="248.55" y="-504.6" font-family="Times,serif" font-size="12.00">JsonToGraph</text>
</g>
<!-- ../ui/services/code&#45;to&#45;svg/main.ts -->
<g id="node8" class="node">
<title>../ui/services/code&#45;to&#45;svg/main.ts</title>
<g id="a_node8"><a xlink:href="../ui/services/code-to-svg/main.ts" xlink:title="../ui/services/code&#45;to&#45;svg/main.ts">
<polygon fill="none" stroke="blue" points="592.38,-469.5 529.72,-469.5 529.72,-334.5 592.38,-334.5 592.38,-469.5"/>
<text text-anchor="middle" x="561.05" y="-397.2" font-family="Times,serif" font-size="16.00">main.ts</text>
</a>
</g>
</g>
<!-- ../ui/services/code&#45;to&#45;svg/main.ts&#45;&gt;../ui/components/draw&#45;graph.ts -->
<g id="edge13" class="edge">
<title>../ui/services/code&#45;to&#45;svg/main.ts&#45;&gt;../ui/components/draw&#45;graph.ts</title>
<path fill="none" stroke="blue" d="M592.67,-408.94C622.63,-415.72 669.14,-426.26 706.95,-434.82"/>
<polygon fill="blue" stroke="blue" points="705.87,-438.17 716.39,-436.96 707.41,-431.34 705.87,-438.17"/>
<text text-anchor="middle" x="647.72" y="-431.91" font-family="Times,serif" font-size="12.00">CodeToSVG</text>
</g>
<!-- ../ui/services/code&#45;to&#45;svg/dot&#45;sugar.ts -->
<g id="node9" class="node">
<title>../ui/services/code&#45;to&#45;svg/dot&#45;sugar.ts</title>
<g id="a_node9"><a xlink:href="../ui/services/code-to-svg/dot-sugar.ts" xlink:title="../ui/services/code&#45;to&#45;svg/dot&#45;sugar.ts">
<polygon fill="none" stroke="blue" points="410.07,-350 318.97,-350 318.97,-278 410.07,-278 410.07,-350"/>
<text text-anchor="middle" x="364.52" y="-309.2" font-family="Times,serif" font-size="16.00">dot&#45;sugar.ts</text>
</a>
</g>
</g>
<!-- ../ui/services/code&#45;to&#45;svg/dot&#45;sugar.ts&#45;&gt;../ui/services/code&#45;to&#45;svg/main.ts -->
<g id="edge9" class="edge">
<title>../ui/services/code&#45;to&#45;svg/dot&#45;sugar.ts&#45;&gt;../ui/services/code&#45;to&#45;svg/main.ts</title>
<path fill="none" stroke="blue" d="M410.41,-327.41C439.12,-336.74 476.73,-350.39 508.17,-366.6 512.04,-368.59 515.97,-370.83 519.83,-373.18"/>
<polygon fill="blue" stroke="blue" points="517.68,-375.95 527.99,-378.37 521.44,-370.05 517.68,-375.95"/>
<text text-anchor="middle" x="471.84" y="-370.2" font-family="Times,serif" font-size="12.00">DotSugar</text>
</g>
<!-- ../ui/services/code&#45;to&#45;svg/interface.ts -->
<g id="node10" class="node">
<title>../ui/services/code&#45;to&#45;svg/interface.ts</title>
<g id="a_node10"><a xlink:href="../ui/services/code-to-svg/interface.ts" xlink:title="../ui/services/code&#45;to&#45;svg/interface.ts">
<polygon fill="none" stroke="blue" points="141.75,-441 55.12,-441 55.12,-243 141.75,-243 141.75,-441"/>
<text text-anchor="middle" x="98.44" y="-337.2" font-family="Times,serif" font-size="16.00">interface.ts</text>
</a>
</g>
</g>
<!-- ../ui/services/code&#45;to&#45;svg/interface.ts&#45;&gt;../ui/services/code&#45;to&#45;svg/main.ts -->
<g id="edge10" class="edge">
<title>../ui/services/code&#45;to&#45;svg/interface.ts&#45;&gt;../ui/services/code&#45;to&#45;svg/main.ts</title>
<path fill="none" stroke="blue" d="M142.1,-351.5C160.88,-355.46 183.26,-359.85 203.58,-363 316.75,-380.56 451.34,-393.02 518.13,-398.65"/>
<polygon fill="blue" stroke="blue" points="517.65,-402.12 527.9,-399.46 518.23,-395.14 517.65,-402.12"/>
<text text-anchor="middle" x="364.52" y="-421.72" font-family="Times,serif" font-size="12.00">Code</text>
<text text-anchor="middle" x="364.52" y="-407.32" font-family="Times,serif" font-size="12.00">CodeToSvgConvertor</text>
<text text-anchor="middle" x="364.52" y="-392.92" font-family="Times,serif" font-size="12.00">Svg</text>
</g>
<!-- ../ui/services/code&#45;to&#45;svg/interface.ts&#45;&gt;../ui/services/code&#45;to&#45;svg/dot&#45;sugar.ts -->
<g id="edge5" class="edge">
<title>../ui/services/code&#45;to&#45;svg/interface.ts&#45;&gt;../ui/services/code&#45;to&#45;svg/dot&#45;sugar.ts</title>
<path fill="none" stroke="blue" d="M142.16,-337.47C187.03,-332.71 257.8,-325.21 307.2,-319.97"/>
<polygon fill="blue" stroke="blue" points="307.57,-323.45 317.14,-318.92 306.83,-316.49 307.57,-323.45"/>
<text text-anchor="middle" x="248.55" y="-348.51" font-family="Times,serif" font-size="12.00">Dot</text>
<text text-anchor="middle" x="248.55" y="-334.11" font-family="Times,serif" font-size="12.00">Sugar</text>
</g>
<!-- ../ui/services/code&#45;to&#45;svg/interface.ts&#45;&gt;../ui/services/code&#45;to&#45;svg/graph&#45;viz.ts -->
<g id="edge11" class="edge">
<title>../ui/services/code&#45;to&#45;svg/interface.ts&#45;&gt;../ui/services/code&#45;to&#45;svg/graph&#45;viz.ts</title>
<path fill="none" stroke="blue" d="M141.97,-365.36C181.64,-387.41 242.22,-421.79 293.52,-453.8 298.57,-456.95 303.78,-460.29 308.98,-463.68"/>
<polygon fill="blue" stroke="blue" points="306.73,-466.39 317,-468.97 310.58,-460.55 306.73,-466.39"/>
<text text-anchor="middle" x="248.55" y="-486.2" font-family="Times,serif" font-size="12.00">Dot</text>
<text text-anchor="middle" x="248.55" y="-471.8" font-family="Times,serif" font-size="12.00">GraphVizInterface</text>
<text text-anchor="middle" x="248.55" y="-457.4" font-family="Times,serif" font-size="12.00">Svg</text>
</g>
<!-- ../ui/services/code&#45;to&#45;svg/json&#45;sugar.ts -->
<g id="node12" class="node">
<title>../ui/services/code&#45;to&#45;svg/json&#45;sugar.ts</title>
<g id="a_node12"><a xlink:href="../ui/services/code-to-svg/json-sugar.ts" xlink:title="../ui/services/code&#45;to&#45;svg/json&#45;sugar.ts">
<polygon fill="none" stroke="blue" points="413.18,-260 315.85,-260 315.85,-188 413.18,-188 413.18,-260"/>
<text text-anchor="middle" x="364.52" y="-219.2" font-family="Times,serif" font-size="16.00">json&#45;sugar.ts</text>
</a>
</g>
</g>
<!-- ../ui/services/code&#45;to&#45;svg/interface.ts&#45;&gt;../ui/services/code&#45;to&#45;svg/json&#45;sugar.ts -->
<g id="edge7" class="edge">
<title>../ui/services/code&#45;to&#45;svg/interface.ts&#45;&gt;../ui/services/code&#45;to&#45;svg/json&#45;sugar.ts</title>
<path fill="none" stroke="blue" d="M142.12,-319.36C160.81,-309.71 183.11,-298.54 203.58,-289.2 236.77,-274.05 274.53,-258.58 305.03,-246.51"/>
<polygon fill="blue" stroke="blue" points="306.06,-249.86 314.08,-242.94 303.5,-243.35 306.06,-249.86"/>
<text text-anchor="middle" x="248.55" y="-307.2" font-family="Times,serif" font-size="12.00">Json</text>
<text text-anchor="middle" x="248.55" y="-292.8" font-family="Times,serif" font-size="12.00">Sugar</text>
</g>
<!-- ../ui/services/code&#45;to&#45;svg/graph&#45;viz.ts&#45;&gt;../ui/services/code&#45;to&#45;svg/main.ts -->
<g id="edge8" class="edge">
<title>../ui/services/code&#45;to&#45;svg/graph&#45;viz.ts&#45;&gt;../ui/services/code&#45;to&#45;svg/main.ts</title>
<path fill="none" stroke="blue" d="M410.75,-465.94C418.78,-460.45 427.22,-455.11 435.51,-450.6 462.03,-436.18 493.76,-423.86 518.55,-415.24"/>
<polygon fill="blue" stroke="blue" points="519.64,-418.57 527.98,-412.03 517.38,-411.94 519.64,-418.57"/>
<text text-anchor="middle" x="471.84" y="-454.2" font-family="Times,serif" font-size="12.00">GraphViz</text>
</g>
<!-- ../ui&#45;dist/index.js -->
<g id="node13" class="node">
<title>../ui&#45;dist/index.js</title>
<g id="a_node13"><a xlink:href="../ui-dist/index.js" xlink:title="../ui&#45;dist/index.js">
<polygon fill="none" stroke="blue" points="131.55,-712 65.33,-712 65.33,-676 131.55,-676 131.55,-712"/>
<text text-anchor="middle" x="98.44" y="-689.2" font-family="Times,serif" font-size="16.00">index.js</text>
</a>
</g>
</g>
<!-- ../test/data&#45;samples/examples.ts -->
<g id="node14" class="node">
<title>../test/data&#45;samples/examples.ts</title>
<g id="a_node14"><a xlink:href="../test/data-samples/examples.ts" xlink:title="../test/data&#45;samples/examples.ts">
<polygon fill="none" stroke="blue" points="143.98,-880.5 52.89,-880.5 52.89,-817.5 143.98,-817.5 143.98,-880.5"/>
<text text-anchor="middle" x="98.44" y="-844.2" font-family="Times,serif" font-size="16.00">examples.ts</text>
</a>
</g>
</g>
<!-- ../api/router.ts -->
<g id="node15" class="node">
<title>../api/router.ts</title>
<g id="a_node15"><a xlink:href="../api/router.ts" xlink:title="../api/router.ts">
<polygon fill="none" stroke="blue" points="398.95,-779.5 330.08,-779.5 330.08,-716.5 398.95,-716.5 398.95,-779.5"/>
<text text-anchor="middle" x="364.52" y="-743.2" font-family="Times,serif" font-size="16.00">router.ts</text>
</a>
</g>
</g>
<!-- ../test/data&#45;samples/examples.ts&#45;&gt;../api/router.ts -->
<g id="edge17" class="edge">
<title>../test/data&#45;samples/examples.ts&#45;&gt;../api/router.ts</title>
<path fill="none" stroke="blue" d="M144.23,-831.87C193.08,-813.19 270.74,-783.48 319.34,-764.9"/>
<polygon fill="blue" stroke="blue" points="320.33,-768.26 328.42,-761.42 317.83,-761.72 320.33,-768.26"/>
<text text-anchor="middle" x="248.55" y="-811.15" font-family="Times,serif" font-size="12.00">* as examples</text>
</g>
<!-- ../server.ts -->
<g id="node17" class="node">
<title>../server.ts</title>
<g id="a_node17"><a xlink:href="../server.ts" xlink:title="../server.ts">
<polygon fill="none" stroke="blue" points="595.93,-854 526.17,-854 526.17,-728 595.93,-728 595.93,-854"/>
<text text-anchor="middle" x="561.05" y="-786.2" font-family="Times,serif" font-size="16.00">server.ts</text>
</a>
</g>
</g>
<!-- ../api/router.ts&#45;&gt;../server.ts -->
<g id="edge15" class="edge">
<title>../api/router.ts&#45;&gt;../server.ts</title>
<path fill="none" stroke="blue" d="M399.4,-755.49C431.42,-762.57 479.68,-773.23 514.95,-781.03"/>
<polygon fill="blue" stroke="blue" points="513.91,-784.38 524.42,-783.12 515.42,-777.55 513.91,-784.38"/>
<text text-anchor="middle" x="471.84" y="-783.07" font-family="Times,serif" font-size="12.00">router</text>
</g>
<!-- ../config.ts -->
<g id="node16" class="node">
<title>../config.ts</title>
<g id="a_node16"><a xlink:href="../config.ts" xlink:title="../config.ts">
<polygon fill="none" stroke="blue" points="400.29,-896.5 328.74,-896.5 328.74,-797.5 400.29,-797.5 400.29,-896.5"/>
<text text-anchor="middle" x="364.52" y="-842.2" font-family="Times,serif" font-size="16.00">config.ts</text>
</a>
</g>
</g>
<!-- ../config.ts&#45;&gt;../server.ts -->
<g id="edge16" class="edge">
<title>../config.ts&#45;&gt;../server.ts</title>
<path fill="none" stroke="blue" d="M400.75,-836.86C432.76,-827.64 480.15,-814 514.93,-803.99"/>
<polygon fill="blue" stroke="blue" points="515.64,-807.43 524.28,-801.3 513.71,-800.7 515.64,-807.43"/>
<text text-anchor="middle" x="471.84" y="-872.46" font-family="Times,serif" font-size="12.00">importMapFile</text>
<text text-anchor="middle" x="471.84" y="-858.06" font-family="Times,serif" font-size="12.00">uiEntrypoints</text>
<text text-anchor="middle" x="471.84" y="-843.66" font-family="Times,serif" font-size="12.00">uiOutDir</text>
<text text-anchor="middle" x="471.84" y="-829.26" font-family="Times,serif" font-size="12.00">uiSourceDir</text>
</g>
</g>
</svg>

